<?xml version="1.0" standalone="no"?>
<!DOCTYPE svg PUBLIC "-//W3C//DTD SVG 20010904//EN"
 "http://www.w3.org/TR/2001/REC-SVG-20010904/DTD/svg10.dtd">
<svg version="1.0" xmlns="http://www.w3.org/2000/svg"
 width="400.000000pt" height="340.000000pt" viewBox="0 0 400.000000 340.000000"
 preserveAspectRatio="xMidYMid meet">

<g transform="translate(0.000000,340.000000) scale(0.100000,-0.100000)"
fill="#000000" stroke="none">
<path d="M2378 3379 c-262 -32 -544 -159 -649 -292 -78 -98 -105 -170 -145
-391 -30 -165 -53 -225 -106 -270 -74 -64 -145 -71 -469 -48 -501 36 -823 -65
-935 -293 -27 -56 -29 -67 -29 -180 0 -108 3 -125 26 -175 53 -113 132 -176
321 -255 150 -62 207 -96 258 -151 53 -58 76 -110 89 -207 36 -261 180 -427
441 -509 67 -21 94 -23 260 -23 155 0 204 4 300 24 244 50 339 15 600 -219
251 -225 419 -318 666 -366 124 -25 365 -25 454 -1 183 51 331 169 408 327 60
121 74 184 79 345 6 161 -9 262 -59 403 -57 164 -125 271 -268 427 -147 159
-231 310 -284 508 -29 108 -45 195 -86 487 -46 325 -75 462 -117 550 -69 143
-202 243 -385 289 -93 24 -265 33 -370 20z m340 -28 c125 -26 228 -78 306
-155 117 -116 142 -199 216 -716 81 -568 135 -707 380 -980 115 -127 156 -186
211 -305 52 -110 86 -236 101 -366 29 -260 -54 -512 -215 -654 -68 -60 -193
-121 -287 -141 -96 -20 -279 -19 -395 1 -270 47 -418 128 -708 387 -139 124
-202 167 -290 198 -77 27 -201 26 -337 -2 -149 -31 -381 -31 -495 0 -160 44
-281 123 -353 232 -52 77 -78 149 -96 260 -34 205 -98 272 -381 389 -235 98
-320 207 -320 411 0 85 3 102 31 160 100 212 374 311 819 296 99 -3 236 -9
306 -12 147 -8 217 7 275 58 62 55 87 120 119 313 33 191 75 291 161 378 87
88 203 154 368 206 195 62 409 78 584 42z"/>
<path d="M2315 3286 c-133 -22 -234 -54 -353 -112 -91 -44 -126 -68 -181 -122
-99 -98 -134 -175 -171 -382 -30 -172 -45 -215 -92 -266 -59 -64 -116 -79
-268 -70 -287 16 -459 18 -559 7 -267 -31 -449 -129 -519 -278 -24 -52 -27
-69 -27 -168 0 -100 3 -116 29 -172 18 -39 47 -80 78 -109 46 -43 79 -61 329
-177 143 -65 196 -137 224 -297 26 -149 67 -238 147 -319 170 -173 460 -229
802 -155 99 22 208 20 278 -5 79 -27 142 -71 288 -201 161 -144 241 -201 365
-261 295 -141 672 -146 881 -11 120 78 218 216 259 367 23 83 31 286 15 383
-35 218 -125 400 -283 570 -234 253 -287 389 -367 937 -56 380 -73 466 -116
554 -66 135 -198 235 -364 276 -89 22 -295 28 -395 11z m384 -26 c166 -40 297
-136 360 -264 41 -83 61 -178 111 -521 22 -154 47 -316 56 -360 49 -245 145
-433 309 -605 252 -264 356 -625 274 -948 -81 -319 -358 -492 -728 -453 -157
16 -289 53 -406 111 -116 58 -184 108 -350 256 -251 224 -337 250 -640 195
-108 -19 -151 -22 -255 -18 -140 6 -212 22 -318 72 -165 78 -262 218 -292 422
-27 180 -90 247 -333 351 -197 85 -265 141 -309 251 -29 74 -31 203 -5 279 26
74 108 159 197 206 182 96 488 123 881 80 80 -9 188 12 242 46 64 41 100 120
127 278 40 237 88 341 204 434 109 88 282 161 452 192 122 22 322 20 423 -4z"/>
<path d="M2266 3194 c-218 -39 -423 -142 -514 -257 -65 -82 -90 -149 -126
-345 -27 -147 -53 -211 -100 -246 -70 -52 -127 -57 -425 -39 -542 35 -842
-105 -859 -398 -6 -112 22 -200 88 -272 53 -58 111 -93 265 -156 170 -71 243
-142 265 -260 5 -31 15 -81 21 -111 37 -188 181 -331 394 -391 113 -33 312
-32 480 0 236 45 310 19 555 -199 280 -249 458 -328 765 -337 234 -8 355 31
486 154 56 53 78 84 114 157 61 124 79 223 72 381 -11 236 -90 433 -244 608
-138 157 -173 204 -216 287 -82 157 -111 269 -167 665 -59 418 -88 510 -192
614 -64 64 -184 125 -290 146 -95 18 -266 18 -372 -1z m408 -24 c105 -27 185
-71 251 -141 99 -104 117 -165 185 -629 74 -510 123 -636 344 -884 53 -60 115
-139 137 -177 172 -289 191 -647 47 -886 -46 -77 -139 -160 -223 -200 -251
-119 -651 -62 -919 131 -34 25 -115 93 -181 152 -210 187 -278 220 -444 211
-53 -3 -136 -13 -186 -22 -133 -25 -331 -17 -442 19 -203 66 -321 205 -358
425 -33 191 -80 240 -330 346 -199 84 -268 156 -295 305 -40 223 107 391 395
452 114 24 355 30 600 14 120 -7 149 -6 198 8 113 33 153 95 187 292 37 210
73 294 162 380 190 184 588 277 872 204z"/>
<path d="M2280 3113 c-141 -23 -289 -77 -393 -142 -129 -82 -192 -183 -227
-366 -38 -202 -49 -234 -94 -280 -61 -63 -112 -72 -320 -57 -271 20 -421 13
-574 -28 -99 -27 -165 -62 -228 -121 -76 -73 -99 -130 -99 -249 1 -118 24
-178 96 -245 46 -43 89 -66 283 -154 140 -64 184 -121 211 -276 28 -157 91
-263 203 -339 143 -96 346 -129 563 -90 60 11 149 19 209 19 96 0 110 -3 160
-29 63 -32 108 -67 235 -181 219 -196 387 -277 640 -306 248 -28 441 38 572
196 81 99 122 217 130 380 11 242 -78 487 -245 667 -128 140 -187 226 -236
350 -39 100 -63 212 -106 501 -65 437 -83 499 -180 601 -103 108 -243 157
-449 155 -69 -1 -137 -4 -151 -6z m353 -28 c96 -25 168 -65 230 -126 99 -100
118 -162 181 -594 76 -518 104 -586 375 -898 94 -108 172 -275 202 -435 19
-101 7 -301 -24 -389 -100 -285 -355 -408 -722 -348 -157 25 -301 85 -420 175
-28 21 -100 81 -160 135 -138 123 -193 160 -274 185 -75 24 -141 25 -234 5
-318 -67 -563 -20 -712 136 -69 72 -102 143 -121 257 -18 105 -52 179 -102
223 -20 18 -79 52 -132 77 -195 90 -224 106 -262 140 -103 93 -132 265 -67
398 43 91 161 167 317 206 76 20 114 22 307 22 121 1 272 -1 335 -4 100 -3
121 -1 161 17 90 40 124 103 154 283 41 252 111 353 308 450 87 42 222 84 322
100 82 12 267 5 338 -15z"/>
<path d="M2285 3029 c-180 -24 -363 -101 -466 -197 -80 -74 -111 -142 -148
-323 -16 -81 -37 -163 -47 -184 -38 -81 -131 -109 -308 -93 -162 16 -456 5
-548 -20 -145 -39 -245 -109 -296 -207 -23 -43 -26 -62 -26 -140 0 -172 64
-253 272 -344 67 -29 142 -67 167 -83 61 -41 100 -109 114 -203 32 -219 152
-350 368 -406 97 -24 258 -25 379 -2 49 10 125 17 170 18 73 0 87 -3 155 -37
49 -25 108 -68 174 -128 201 -182 314 -251 491 -295 253 -65 474 -34 623 85
59 47 126 152 158 245 24 72 27 93 26 215 0 158 -19 245 -83 378 -49 103 -79
146 -174 251 -181 199 -225 314 -291 761 -49 331 -60 383 -101 467 -55 115
-155 191 -298 228 -77 19 -222 26 -311 14z m279 -24 c149 -32 271 -118 321
-228 34 -73 48 -144 95 -459 66 -451 110 -565 300 -777 96 -107 151 -191 189
-290 85 -220 81 -461 -10 -631 -37 -71 -126 -158 -195 -193 -95 -48 -164 -60
-319 -54 -166 6 -272 33 -403 102 -95 51 -125 73 -267 199 -118 105 -197 158
-258 176 -55 15 -171 10 -317 -15 -238 -39 -458 17 -576 147 -50 56 -92 150
-109 248 -25 144 -67 201 -190 259 -33 16 -103 49 -156 75 -161 76 -215 160
-207 321 3 66 9 91 31 128 50 84 145 148 272 181 146 37 278 42 605 20 148
-10 225 21 267 106 13 25 34 106 49 180 29 155 63 237 125 304 144 158 505
254 753 201z"/>
<path d="M2223 2935 c-206 -37 -379 -130 -451 -242 -42 -66 -57 -111 -82 -249
-42 -238 -86 -266 -372 -244 -331 26 -555 -15 -678 -126 -121 -110 -132 -303
-22 -425 46 -51 97 -82 234 -138 79 -33 159 -94 182 -140 8 -14 21 -66 31
-115 37 -202 149 -321 348 -373 80 -20 255 -20 362 1 44 9 112 16 150 16 91 0
165 -34 264 -121 299 -263 427 -324 696 -336 135 -6 204 6 303 54 257 125 336
514 172 847 -38 80 -65 116 -195 266 -74 85 -144 216 -174 328 -19 68 -30 137
-82 480 -45 305 -96 399 -254 474 -120 55 -277 71 -432 43z m309 -16 c130 -27
248 -113 294 -214 32 -68 47 -143 89 -434 19 -130 46 -278 60 -330 32 -118 99
-248 173 -335 31 -37 79 -93 105 -124 55 -64 128 -207 152 -297 9 -33 19 -110
22 -170 10 -187 -39 -327 -150 -432 -112 -106 -258 -146 -448 -124 -230 28
-357 90 -561 272 -209 188 -270 209 -492 170 -139 -25 -244 -26 -341 -6 -199
42 -327 174 -356 365 -13 91 -49 161 -102 200 -22 16 -93 52 -159 81 -130 57
-195 106 -231 173 -18 34 -22 57 -22 137 0 89 2 99 30 145 59 94 162 151 329
180 75 14 135 15 348 10 240 -7 260 -6 301 12 81 36 103 82 142 292 32 171 99
264 242 337 140 72 257 101 415 102 59 1 131 -4 160 -10z"/>
<path d="M2176 2844 c-214 -46 -375 -156 -425 -289 -11 -29 -30 -106 -42 -169
-22 -122 -41 -162 -92 -200 -27 -20 -40 -21 -325 -21 -257 0 -306 -2 -361 -18
-191 -54 -284 -153 -285 -302 0 -157 54 -221 259 -311 165 -72 204 -115 225
-249 43 -273 278 -404 620 -349 63 11 145 19 181 19 93 -1 167 -40 294 -155
167 -152 289 -221 454 -256 77 -16 256 -18 320 -3 114 26 228 113 283 215 85
158 82 394 -7 591 -42 91 -74 138 -168 242 -139 153 -187 280 -237 619 -54
366 -66 414 -129 496 -47 62 -131 114 -220 138 -82 21 -249 22 -345 2z m334
-16 c109 -26 210 -101 255 -189 29 -56 45 -134 86 -409 57 -394 93 -484 279
-693 86 -97 120 -156 160 -275 40 -120 50 -263 26 -365 -58 -247 -244 -374
-517 -353 -219 17 -365 86 -566 269 -171 155 -248 180 -446 142 -102 -19 -256
-19 -332 0 -128 34 -227 110 -275 212 -12 25 -28 81 -35 124 -8 43 -21 91 -29
107 -28 54 -99 105 -217 156 -184 81 -234 141 -234 286 0 75 3 90 28 133 48
81 130 130 273 163 66 16 110 18 264 15 363 -7 341 -8 389 19 60 33 85 86 110
229 35 200 94 283 256 361 167 81 366 106 525 68z"/>
<path d="M2130 2750 c-101 -27 -229 -91 -282 -143 -60 -58 -86 -116 -114 -259
-27 -137 -44 -173 -94 -203 -32 -18 -47 -20 -165 -15 -391 15 -534 -10 -649
-110 -82 -73 -104 -207 -52 -314 33 -68 77 -101 206 -157 106 -45 162 -84 185
-130 9 -15 22 -63 30 -105 18 -97 47 -157 101 -211 107 -107 288 -146 499
-108 44 8 107 15 141 15 84 0 154 -37 274 -145 52 -47 119 -102 148 -121 246
-165 579 -174 749 -20 46 41 99 135 119 210 21 78 18 237 -6 324 -38 135 -74
196 -217 364 -118 137 -153 238 -203 572 -52 354 -63 389 -150 470 -83 78
-173 106 -335 105 -75 0 -134 -6 -185 -19z m321 -4 c155 -33 252 -123 287
-266 6 -25 25 -139 42 -255 58 -400 89 -480 258 -669 184 -206 242 -493 142
-705 -69 -144 -205 -221 -393 -221 -211 0 -372 69 -564 243 -91 83 -146 121
-206 141 -60 20 -106 20 -199 0 -41 -9 -120 -16 -178 -16 -125 0 -206 22 -286
78 -85 58 -122 126 -154 283 -19 96 -77 149 -231 211 -109 44 -173 103 -195
178 -44 149 29 276 189 331 106 37 190 44 418 37 245 -8 267 -4 314 58 20 27
32 64 51 157 29 146 52 200 107 257 126 129 397 200 598 158z"/>
<path d="M2220 2683 c-187 -22 -367 -119 -420 -227 -11 -25 -32 -97 -45 -162
-27 -128 -40 -155 -88 -185 -30 -18 -44 -19 -242 -13 -177 6 -223 4 -294 -10
-137 -28 -222 -81 -261 -162 -33 -67 -26 -173 15 -240 28 -46 40 -54 168 -117
161 -80 180 -100 203 -208 8 -40 24 -94 36 -121 27 -64 111 -140 186 -169 81
-31 231 -37 357 -14 56 10 114 14 138 11 59 -9 128 -52 222 -137 149 -134 263
-194 420 -219 212 -34 389 33 467 177 48 87 61 154 56 277 -8 172 -57 283
-191 434 -128 143 -168 248 -212 557 -45 309 -55 343 -126 420 -78 84 -229
126 -389 108z m261 -42 c30 -12 75 -37 98 -57 74 -64 99 -137 136 -399 49
-349 85 -445 221 -597 265 -296 253 -708 -24 -836 -48 -22 -75 -27 -164 -30
-222 -8 -352 46 -564 237 -107 97 -149 116 -249 116 -44 0 -124 -7 -177 -14
-260 -37 -453 77 -483 286 -19 126 -46 155 -225 235 -106 48 -155 94 -177 167
-19 67 -12 129 21 186 69 117 269 169 555 145 245 -20 280 3 321 212 33 170
77 236 198 297 124 61 213 81 352 77 77 -2 120 -9 161 -25z"/>
<path d="M2153 2590 c-66 -12 -169 -51 -219 -83 -92 -58 -133 -127 -160 -267
-21 -113 -36 -145 -76 -166 -35 -18 -42 -19 -293 -14 -179 4 -250 -8 -340 -59
-75 -42 -108 -96 -113 -181 -7 -122 36 -180 179 -243 150 -65 172 -89 195
-211 8 -37 25 -88 39 -111 67 -115 213 -172 395 -154 232 24 225 24 282 -4 29
-15 92 -62 141 -105 169 -151 278 -197 472 -197 111 0 124 2 183 29 125 58
191 168 199 331 9 167 -42 300 -166 440 -76 86 -130 178 -155 265 -9 30 -29
143 -45 250 -39 256 -47 290 -81 343 -58 92 -153 138 -295 143 -49 1 -113 -1
-142 -6z m256 -26 c76 -21 140 -70 174 -132 27 -50 33 -77 92 -451 28 -175 77
-278 189 -400 160 -174 207 -413 116 -598 -68 -138 -209 -199 -398 -173 -157
21 -248 67 -392 195 -144 129 -200 148 -355 120 -279 -50 -457 41 -495 255
-19 110 -60 153 -200 211 -128 53 -175 110 -175 214 0 108 57 174 187 218 57
20 84 22 298 22 305 0 301 -2 341 196 24 120 43 163 98 212 117 105 358 157
520 111z"/>
<path d="M2100 2494 c-73 -19 -167 -64 -208 -99 -47 -40 -79 -109 -98 -215
-13 -73 -23 -100 -45 -124 l-27 -31 -219 0 c-239 -1 -275 -7 -364 -64 -82 -52
-113 -163 -70 -257 22 -49 52 -72 163 -123 45 -21 95 -51 110 -66 27 -27 48
-79 48 -120 0 -40 48 -121 94 -162 85 -75 197 -96 359 -68 56 9 114 14 137 10
48 -8 106 -45 189 -120 83 -74 150 -116 231 -146 56 -21 83 -24 190 -24 116 0
129 2 175 27 106 56 166 157 173 293 8 146 -42 280 -148 399 -117 131 -145
202 -185 465 -14 95 -30 194 -36 220 -32 144 -149 222 -332 220 -45 0 -107 -7
-137 -15z m271 -15 c50 -13 115 -58 144 -102 30 -43 47 -113 75 -309 36 -255
66 -335 170 -453 116 -133 162 -241 162 -385 0 -199 -108 -323 -294 -337 -158
-11 -307 46 -448 172 -47 42 -107 88 -135 102 -46 24 -54 25 -135 17 -47 -4
-132 -8 -190 -8 -126 -1 -186 21 -249 89 -38 41 -71 119 -71 169 0 12 -10 39
-23 61 -19 34 -38 48 -137 97 -127 63 -154 89 -170 161 -14 65 1 117 46 167
68 75 225 108 429 90 123 -10 175 -3 211 31 27 26 38 56 59 163 19 100 52 157
118 201 122 81 299 111 438 74z"/>
<path d="M2073 2405 c-105 -29 -188 -87 -223 -155 -10 -20 -25 -73 -34 -118
-17 -89 -29 -115 -62 -132 -14 -8 -91 -13 -220 -13 l-199 -2 -67 -33 c-104
-51 -142 -137 -103 -237 20 -53 52 -80 155 -127 93 -43 117 -69 130 -138 21
-110 67 -172 160 -213 51 -23 168 -28 300 -13 94 11 121 0 219 -84 40 -35 96
-78 123 -96 113 -76 307 -102 414 -55 102 44 161 137 171 264 10 131 -34 247
-137 364 -102 115 -127 186 -175 508 -25 163 -56 219 -150 268 -52 27 -223 34
-302 12z m282 -19 c61 -26 113 -83 130 -141 8 -27 26 -124 40 -215 14 -91 32
-187 40 -215 18 -63 73 -155 128 -214 86 -92 127 -195 127 -314 0 -108 -22
-170 -80 -227 -55 -56 -119 -80 -211 -80 -137 0 -245 45 -365 151 -85 76 -161
119 -209 119 -16 0 -50 -5 -75 -11 -71 -17 -191 -14 -250 6 -69 23 -132 85
-148 145 -6 25 -16 64 -22 86 -14 57 -50 89 -155 138 -97 45 -118 67 -134 135
-13 60 4 114 50 155 64 59 117 70 334 71 134 0 197 4 212 13 31 17 49 56 63
132 16 95 29 128 63 167 37 42 130 90 211 109 75 17 198 12 251 -10z"/>
<path d="M2095 2326 c-80 -19 -108 -30 -161 -67 -52 -36 -78 -81 -95 -169 -13
-69 -31 -114 -51 -127 -7 -4 -87 -8 -178 -8 -103 0 -180 -5 -206 -12 -129 -40
-184 -142 -132 -243 20 -39 33 -50 104 -85 101 -49 121 -67 135 -119 26 -99
34 -118 64 -149 18 -19 50 -42 71 -52 50 -24 159 -31 244 -16 96 17 129 6 230
-80 99 -83 172 -122 258 -139 196 -39 337 54 358 234 13 110 -31 232 -122 336
-90 103 -110 155 -144 390 -23 157 -41 210 -86 252 -61 57 -179 79 -289 54z
m231 -34 c86 -44 98 -74 143 -357 25 -152 54 -222 130 -310 28 -33 66 -89 84
-125 30 -60 32 -72 32 -165 0 -114 -16 -158 -79 -212 -51 -45 -95 -56 -201
-51 -116 6 -189 38 -290 127 -107 95 -132 105 -230 95 -176 -18 -248 -7 -311
49 -43 37 -58 66 -73 138 -15 70 -40 95 -144 144 -99 46 -120 75 -114 159 3
53 7 62 39 92 57 51 117 64 306 64 l164 0 27 28 c21 21 31 44 40 97 20 115 52
165 133 206 104 53 264 63 344 21z"/>
<path d="M2065 2236 c-132 -33 -192 -94 -209 -218 -4 -26 -16 -58 -27 -72 -20
-26 -22 -26 -160 -26 -77 0 -160 -5 -183 -11 -88 -22 -146 -99 -132 -174 10
-51 40 -80 120 -119 78 -37 106 -64 106 -106 1 -39 34 -103 68 -132 52 -44 92
-52 231 -44 142 7 129 12 241 -83 88 -74 152 -102 250 -108 98 -7 153 11 204
67 95 105 80 280 -35 415 -87 102 -108 162 -139 387 -7 49 -22 107 -34 130
-46 92 -162 128 -301 94z m215 -28 c75 -39 83 -58 124 -321 19 -115 48 -182
112 -257 61 -72 95 -147 101 -225 15 -174 -102 -277 -278 -245 -86 16 -131 39
-220 114 -101 83 -121 90 -231 75 -118 -17 -184 -3 -238 51 -29 29 -41 51 -50
93 -15 75 -38 101 -125 141 -82 38 -105 67 -105 135 0 49 33 92 92 117 35 15
72 18 193 19 83 1 158 5 167 9 21 10 44 59 52 114 10 67 30 107 69 136 87 67
250 88 337 44z"/>
</g>
</svg>
