<?xml version="1.0" standalone="no"?>
<!DOCTYPE svg PUBLIC "-//W3C//DTD SVG 20010904//EN"
 "http://www.w3.org/TR/2001/REC-SVG-20010904/DTD/svg10.dtd">
<svg version="1.0" xmlns="http://www.w3.org/2000/svg"
 width="40.000000pt" height="40.000000pt" viewBox="0 0 40.000000 40.000000"
 preserveAspectRatio="xMidYMid meet">

<g transform="translate(0.000000,40.000000) scale(0.100000,-0.100000)"
fill="#000000" stroke="none">
<path d="M22 203 l3 -178 175 0 175 0 0 175 0 175 -178 3 -177 2 2 -177z m287
113 c18 -17 21 -30 21 -113 0 -126 -7 -133 -133 -133 -121 0 -131 9 -135 119
-5 126 23 154 149 149 59 -2 82 -8 98 -22z"/>
<path d="M106 294 c-24 -24 -22 -165 2 -187 29 -26 155 -24 182 3 28 28 29
158 2 183 -26 23 -164 24 -186 1z m179 -15 c10 -15 -1 -23 -20 -15 -9 3 -13
10 -10 16 8 13 22 13 30 -1z m-36 -35 c27 -35 26 -59 -4 -89 -30 -30 -54 -31
-89 -4 -32 25 -34 64 -4 96 29 31 71 30 97 -3z"/>
<path d="M164 226 c-12 -31 0 -61 27 -64 31 -4 52 18 47 50 -2 18 -10 24 -36
26 -21 2 -34 -2 -38 -12z"/>
</g>
</svg>
