<?xml version="1.0" standalone="no"?>
<!DOCTYPE svg PUBLIC "-//W3C//DTD SVG 20010904//EN"
 "http://www.w3.org/TR/2001/REC-SVG-20010904/DTD/svg10.dtd">
<svg version="1.0" xmlns="http://www.w3.org/2000/svg"
 width="40.000000pt" height="40.000000pt" viewBox="0 0 40.000000 40.000000"
 preserveAspectRatio="xMidYMid meet">

<g transform="translate(0.000000,40.000000) scale(0.100000,-0.100000)"
fill="#000000" stroke="none">
<path d="M20 200 l0 -180 178 2 177 3 3 178 2 177 -180 0 -180 0 0 -180z m104
106 c9 -13 7 -20 -7 -31 -35 -25 -70 10 -40 40 18 18 32 16 47 -9z m-4 -141
c0 -84 0 -85 -25 -85 -25 0 -25 1 -25 85 0 84 0 85 25 85 25 0 25 -1 25 -85z
m90 75 c0 -7 6 -7 19 0 30 16 59 12 81 -10 16 -16 20 -33 20 -85 l0 -65 -30 0
-30 0 0 60 c0 57 -1 60 -24 60 -28 0 -36 -16 -36 -76 0 -40 -2 -44 -25 -44
-25 0 -25 1 -25 85 0 84 0 85 25 85 14 0 25 -5 25 -10z"/>
</g>
</svg>
