<svg xmlns="http://www.w3.org/2000/svg" xmlns:xlink="http://www.w3.org/1999/xlink" width="402" zoomAndPan="magnify" viewBox="0 0 301.5 254.999984" height="340" preserveAspectRatio="xMidYMid meet" version="1.0"><defs><clipPath id="2b196e75ba"><path d="M 0 0.210938 L 301 0.210938 L 301 254.789062 L 0 254.789062 Z M 0 0.210938 " clip-rule="nonzero"/></clipPath><clipPath id="1494f8a2c2"><path d="M 2 1 L 297 1 L 297 254.789062 L 2 254.789062 Z M 2 1 " clip-rule="nonzero"/></clipPath></defs><g clip-path="url(#2b196e75ba)"><path fill="#ffffff" d="M 0 0.210938 L 301.5 0.210938 L 301.5 262.710938 L 0 262.710938 Z M 0 0.210938 " fill-opacity="1" fill-rule="nonzero"/><path fill="#ffffff" d="M 0 0.210938 L 301.5 0.210938 L 301.5 255.210938 L 0 255.210938 Z M 0 0.210938 " fill-opacity="1" fill-rule="nonzero"/></g><g clip-path="url(#1494f8a2c2)"><path fill="#000000" d="M 294.78125 183.453125 C 291.4375 167.785156 283.761719 153.324219 273.167969 142.734375 C 251.308594 120.890625 248.367188 99.527344 244.300781 69.957031 C 242.90625 59.804688 241.320312 48.300781 238.765625 35.660156 C 235.554688 19.777344 225.304688 8.808594 209.128906 3.929688 C 196.835938 0.226562 181.625 0.226562 166.296875 3.933594 C 151.882812 7.421875 139.296875 13.734375 131.765625 21.261719 C 122.4375 30.585938 120.5625 42.238281 118.914062 52.515625 C 116.402344 68.144531 114.410156 80.488281 87.585938 77.625 C 47.609375 73.367188 21.265625 78.5 9.277344 92.882812 C 0.0273438 103.980469 2.589844 117.195312 4.121094 122.359375 C 8.125 135.863281 19.359375 140.484375 30.226562 144.953125 C 42.328125 149.929688 53.757812 154.628906 55.355469 170.890625 C 56.664062 184.167969 62.652344 194.996094 72.675781 202.207031 C 86.597656 212.21875 107.542969 214.699219 131.664062 209.179688 C 152.085938 204.503906 162.320312 213.859375 175.277344 225.703125 C 188.722656 237.996094 205.457031 253.296875 239.710938 255.117188 C 241.128906 255.191406 242.523438 255.230469 243.898438 255.230469 C 266.363281 255.226562 283.128906 245.21875 291.359375 226.757812 C 296.882812 214.378906 298.097656 199 294.78125 183.453125 Z M 290.292969 226.28125 C 281.765625 245.398438 263.828125 255.238281 239.777344 253.945312 C 205.941406 252.148438 190.070312 237.640625 176.066406 224.839844 C 165.613281 215.285156 156.339844 206.800781 141.636719 206.800781 C 138.496094 206.800781 135.105469 207.191406 131.402344 208.035156 C 107.621094 213.476562 87.003906 211.070312 73.363281 201.253906 C 63.621094 194.246094 57.796875 183.707031 56.523438 170.777344 C 54.855469 153.8125 42.5625 148.757812 30.675781 143.867188 C 20.0625 139.503906 9.089844 134.992188 5.242188 122.023438 C 3.765625 117.039062 1.289062 104.296875 10.175781 93.632812 C 21.734375 79.765625 48.460938 74.632812 87.460938 78.789062 C 115.398438 81.769531 117.5625 68.296875 120.070312 52.699219 C 121.695312 42.597656 123.535156 31.144531 132.59375 22.089844 C 139.976562 14.710938 152.363281 8.507812 166.574219 5.070312 C 181.699219 1.410156 196.695312 1.402344 208.789062 5.050781 C 224.527344 9.792969 234.496094 20.457031 237.617188 35.890625 C 240.167969 48.496094 241.746094 59.980469 243.140625 70.113281 C 247.238281 99.910156 250.199219 121.4375 272.335938 143.5625 C 293.609375 164.820312 301.496094 201.15625 290.292969 226.28125 Z M 266.773438 141.957031 C 246.054688 121.253906 243.269531 101.003906 239.414062 72.976562 C 238.089844 63.351562 236.589844 52.445312 234.164062 40.460938 C 231.117188 25.390625 221.394531 14.980469 206.046875 10.351562 C 194.390625 6.839844 179.960938 6.839844 165.421875 10.355469 C 151.753906 13.660156 139.8125 19.652344 132.671875 26.792969 C 123.820312 35.640625 122.042969 46.6875 120.476562 56.4375 C 118.097656 71.238281 116.210938 82.925781 90.808594 80.222656 C 52.898438 76.183594 27.910156 81.050781 16.539062 94.699219 C 7.757812 105.230469 10.191406 117.769531 11.644531 122.667969 C 15.445312 135.488281 26.105469 139.871094 36.414062 144.109375 C 47.878906 148.824219 58.703125 153.277344 60.21875 168.675781 C 61.460938 181.273438 67.140625 191.546875 76.652344 198.390625 C 89.855469 207.886719 109.726562 210.234375 132.601562 205.003906 C 151.945312 200.574219 161.644531 209.441406 173.921875 220.664062 C 186.675781 232.320312 202.542969 246.832031 235.03125 248.558594 C 236.375 248.628906 237.699219 248.664062 239 248.664062 C 260.3125 248.664062 276.21875 239.167969 284.027344 221.652344 C 289.265625 209.910156 290.417969 195.320312 287.273438 180.578125 C 284.101562 165.71875 276.820312 152.003906 266.773438 141.957031 Z M 282.960938 221.175781 C 274.882812 239.289062 257.886719 248.609375 235.09375 247.386719 C 203.027344 245.683594 187.984375 231.933594 174.714844 219.800781 C 164.796875 210.734375 156 202.691406 142.050781 202.691406 C 139.070312 202.691406 135.851562 203.058594 132.339844 203.863281 C 109.796875 209.019531 90.265625 206.738281 77.339844 197.4375 C 68.109375 190.800781 62.59375 180.8125 61.386719 168.5625 C 59.800781 152.460938 48.140625 147.667969 36.859375 143.027344 C 26.804688 138.894531 16.410156 134.617188 12.769531 122.335938 C 11.367188 117.617188 9.023438 105.546875 17.4375 95.449219 C 28.386719 82.308594 53.714844 77.449219 90.683594 81.386719 C 117.195312 84.214844 119.253906 71.429688 121.632812 56.625 C 123.171875 47.050781 124.914062 36.199219 133.5 27.621094 C 140.496094 20.628906 152.230469 14.75 165.699219 11.492188 C 180.035156 8.027344 194.246094 8.019531 205.710938 11.476562 C 220.617188 15.96875 230.0625 26.074219 233.015625 40.691406 C 235.433594 52.640625 236.929688 63.53125 238.253906 73.136719 C 242.140625 101.390625 244.949219 121.804688 265.941406 142.789062 C 286.101562 162.933594 293.578125 197.367188 282.960938 221.175781 Z M 234.527344 75.996094 C 233.277344 66.898438 231.855469 56.585938 229.566406 45.257812 C 226.683594 31 217.484375 21.152344 202.964844 16.773438 C 191.941406 13.453125 178.296875 13.453125 164.550781 16.777344 C 151.621094 19.902344 140.332031 25.570312 133.574219 32.324219 C 125.199219 40.691406 123.523438 51.144531 122.039062 60.363281 C 119.792969 74.335938 118.011719 85.371094 94.03125 82.816406 C 58.183594 78.996094 34.558594 83.605469 23.800781 96.511719 C 15.492188 106.480469 17.792969 118.34375 19.167969 122.980469 C 22.765625 135.109375 32.847656 139.257812 42.601562 143.269531 C 53.425781 147.71875 63.652344 151.925781 65.082031 166.460938 C 66.253906 178.378906 71.632812 188.097656 80.628906 194.570312 C 93.117188 203.554688 111.910156 205.777344 133.539062 200.828125 C 151.816406 196.648438 160.972656 205.019531 172.566406 215.621094 C 184.625 226.644531 199.632812 240.363281 230.351562 241.996094 C 231.625 242.0625 232.871094 242.097656 234.105469 242.097656 C 254.261719 242.097656 269.308594 233.117188 276.695312 216.546875 C 281.648438 205.441406 282.738281 191.644531 279.761719 177.699219 C 276.765625 163.648438 269.882812 150.679688 260.375 141.179688 C 240.804688 121.617188 238.171875 102.480469 234.527344 75.996094 Z M 275.625 216.070312 C 267.996094 233.179688 251.953125 241.976562 230.414062 240.828125 C 200.113281 239.21875 185.898438 226.222656 173.359375 214.757812 C 163.980469 206.1875 155.660156 198.578125 142.464844 198.578125 C 139.644531 198.578125 136.601562 198.925781 133.277344 199.6875 C 111.980469 204.558594 93.527344 202.40625 81.3125 193.621094 C 72.597656 187.347656 67.386719 177.917969 66.25 166.347656 C 64.75 151.109375 53.714844 146.574219 43.046875 142.1875 C 33.550781 138.28125 23.730469 134.242188 20.292969 122.648438 C 18.96875 118.191406 16.753906 106.792969 24.699219 97.261719 C 35.042969 84.847656 58.976562 80.261719 93.90625 83.980469 C 119 86.65625 120.945312 74.558594 123.195312 60.550781 C 124.648438 51.503906 126.296875 41.253906 134.402344 33.152344 C 141.011719 26.546875 152.101562 20.992188 164.824219 17.914062 C 178.375 14.636719 191.796875 14.632812 202.628906 17.894531 C 216.707031 22.140625 225.625 31.683594 228.417969 45.488281 C 230.703125 56.78125 232.117188 67.074219 233.367188 76.15625 C 237.042969 102.867188 239.695312 122.167969 259.550781 142.007812 C 278.59375 161.046875 285.65625 193.578125 275.625 216.070312 Z M 229.640625 79.015625 C 228.460938 70.445312 227.125 60.730469 224.964844 50.054688 C 222.246094 36.613281 213.574219 27.324219 199.882812 23.199219 C 189.492188 20.066406 176.632812 20.066406 163.675781 23.199219 C 151.488281 26.144531 140.847656 31.488281 134.476562 37.851562 C 126.582031 45.746094 125 55.597656 123.601562 64.289062 C 121.488281 77.433594 119.8125 87.8125 97.253906 85.410156 C 63.472656 81.808594 41.203125 86.15625 31.0625 98.324219 C 23.226562 107.730469 25.394531 118.917969 26.691406 123.292969 C 30.085938 134.738281 39.59375 138.644531 48.785156 142.425781 C 58.976562 146.617188 68.597656 150.574219 69.945312 164.25 C 71.050781 175.484375 76.121094 184.648438 84.605469 190.753906 C 96.378906 199.222656 114.089844 201.316406 134.476562 196.652344 C 151.671875 192.71875 160.296875 200.601562 171.214844 210.582031 C 182.578125 220.972656 196.71875 233.898438 225.671875 235.4375 C 226.871094 235.5 228.050781 235.53125 229.210938 235.53125 C 248.214844 235.53125 262.398438 227.0625 269.363281 211.441406 C 274.03125 200.972656 275.058594 187.96875 272.253906 174.824219 C 269.429688 161.582031 262.941406 149.359375 253.984375 140.40625 C 235.550781 121.984375 233.070312 103.960938 229.640625 79.015625 Z M 268.292969 210.964844 C 261.113281 227.070312 246 235.347656 225.734375 234.269531 C 197.199219 232.753906 183.816406 220.515625 172.003906 209.71875 C 163.164062 201.640625 155.320312 194.464844 142.878906 194.464844 C 140.21875 194.464844 137.351562 194.792969 134.214844 195.511719 C 114.160156 200.097656 96.785156 198.070312 85.289062 189.800781 C 77.085938 183.902344 72.179688 175.023438 71.109375 164.132812 C 69.695312 149.757812 59.292969 145.480469 49.230469 141.34375 C 40.289062 137.667969 31.046875 133.867188 27.816406 122.960938 C 26.570312 118.765625 24.488281 108.042969 31.960938 99.074219 C 41.699219 87.390625 64.230469 83.070312 97.128906 86.578125 C 120.808594 89.101562 122.632812 77.6875 124.757812 64.472656 C 126.125 55.957031 127.675781 46.304688 135.304688 38.683594 C 147.546875 26.449219 177.617188 17.710938 199.542969 24.320312 C 212.796875 28.316406 221.1875 37.292969 223.816406 50.289062 C 225.96875 60.925781 227.300781 70.621094 228.476562 79.175781 C 231.941406 104.347656 234.441406 122.535156 253.152344 141.234375 C 271.089844 159.15625 277.738281 189.785156 268.292969 210.964844 Z M 224.753906 82.035156 C 223.644531 73.988281 222.390625 64.871094 220.367188 54.855469 C 217.8125 42.222656 209.664062 33.496094 196.800781 29.621094 C 187.039062 26.675781 174.964844 26.679688 162.800781 29.621094 C 151.359375 32.386719 141.363281 37.40625 135.382812 43.382812 C 127.960938 50.796875 126.476562 60.050781 125.164062 68.210938 C 123.183594 80.53125 121.621094 90.257812 100.476562 88.007812 C 68.757812 84.625 47.847656 88.707031 38.324219 100.136719 C 30.957031 108.976562 32.996094 119.492188 34.214844 123.605469 C 37.40625 134.359375 46.335938 138.035156 54.972656 141.585938 C 64.523438 145.511719 73.546875 149.222656 74.808594 162.035156 C 75.84375 172.589844 80.609375 181.199219 88.582031 186.933594 C 99.640625 194.886719 116.273438 196.855469 135.414062 192.476562 C 151.535156 188.789062 159.621094 196.183594 169.859375 205.542969 C 180.527344 215.296875 193.808594 227.433594 220.992188 228.878906 C 222.117188 228.9375 223.222656 228.96875 224.3125 228.96875 C 242.164062 228.96875 255.484375 221.011719 262.03125 206.335938 C 266.414062 196.503906 267.378906 184.292969 264.746094 171.949219 C 262.09375 159.515625 256 148.035156 247.589844 139.628906 C 230.296875 122.347656 227.972656 105.4375 224.753906 82.035156 Z M 260.960938 205.859375 C 254.226562 220.960938 240.058594 228.714844 221.054688 227.710938 C 194.289062 226.289062 181.730469 214.808594 170.652344 204.679688 C 162.351562 197.089844 154.984375 190.355469 143.296875 190.355469 C 140.796875 190.355469 138.097656 190.664062 135.152344 191.335938 C 116.339844 195.640625 100.046875 193.738281 89.265625 185.984375 C 81.574219 180.453125 76.976562 172.128906 75.972656 161.921875 C 74.644531 148.40625 64.871094 144.386719 55.417969 140.5 C 47.035156 137.054688 38.367188 133.492188 35.339844 123.273438 C 34.175781 119.339844 32.21875 109.292969 39.222656 100.886719 C 48.355469 89.933594 69.492188 85.882812 100.351562 89.171875 C 122.605469 91.542969 124.324219 80.816406 126.320312 68.398438 C 127.605469 60.410156 129.058594 51.359375 136.210938 44.210938 C 147.691406 32.738281 175.898438 24.539062 196.460938 30.742188 C 208.886719 34.484375 216.753906 42.902344 219.21875 55.085938 C 221.238281 65.066406 222.488281 74.164062 223.59375 82.191406 C 226.84375 105.824219 229.191406 122.898438 246.761719 140.457031 C 263.582031 157.269531 269.820312 185.996094 260.960938 205.859375 Z M 219.867188 85.054688 C 218.832031 77.535156 217.660156 69.015625 215.765625 59.652344 C 213.375 47.835938 205.753906 39.671875 193.71875 36.042969 C 173.546875 29.960938 147.261719 37.945312 136.289062 48.914062 C 129.34375 55.851562 127.953125 64.503906 126.726562 72.136719 C 125.0625 82.503906 123.714844 90.910156 108.980469 90.90625 C 107.382812 90.90625 105.628906 90.808594 103.699219 90.605469 C 74.050781 87.445312 54.496094 91.261719 45.585938 101.953125 C 38.691406 110.226562 40.601562 120.070312 41.738281 123.917969 C 44.726562 133.984375 53.078125 137.421875 61.160156 140.742188 C 70.074219 144.410156 78.496094 147.875 79.671875 159.820312 C 80.644531 169.695312 85.097656 177.753906 92.558594 183.117188 C 102.898438 190.558594 118.453125 192.398438 136.351562 188.304688 C 151.398438 184.863281 158.949219 191.765625 168.507812 200.503906 C 178.480469 209.621094 190.894531 220.96875 216.3125 222.320312 C 217.363281 222.375 218.398438 222.402344 219.417969 222.402344 C 236.117188 222.402344 248.578125 214.960938 254.699219 201.234375 C 258.796875 192.039062 259.703125 180.617188 257.238281 169.078125 C 254.757812 157.449219 249.0625 146.714844 241.195312 138.855469 C 225.046875 122.714844 222.875 106.917969 219.867188 85.054688 Z M 253.628906 200.757812 C 247.34375 214.847656 234.121094 222.101562 216.371094 221.148438 C 191.375 219.824219 179.644531 209.097656 169.296875 199.640625 C 161.535156 192.542969 154.644531 186.242188 143.710938 186.242188 C 141.375 186.242188 138.847656 186.53125 136.089844 187.160156 C 118.527344 191.179688 103.308594 189.40625 93.242188 182.167969 C 86.0625 177.003906 81.773438 169.238281 80.835938 159.707031 C 79.589844 147.058594 70.445312 143.296875 61.605469 139.660156 C 53.78125 136.441406 45.6875 133.117188 42.863281 123.582031 C 41.777344 119.917969 39.953125 110.542969 46.484375 102.703125 C 55.007812 92.476562 74.75 88.695312 103.574219 91.765625 C 105.542969 91.976562 107.335938 92.078125 108.976562 92.078125 C 124.707031 92.074219 126.191406 82.847656 127.882812 72.324219 C 129.082031 64.863281 130.441406 56.410156 137.113281 49.742188 C 147.835938 39.027344 174.175781 31.375 193.378906 37.164062 C 204.972656 40.660156 212.320312 48.515625 214.617188 59.882812 C 216.503906 69.210938 217.671875 77.710938 218.707031 85.214844 C 221.742188 107.304688 223.9375 123.261719 240.367188 139.679688 C 256.074219 155.378906 261.898438 182.207031 253.628906 200.757812 Z M 214.980469 88.074219 C 214.015625 81.082031 212.925781 73.160156 211.164062 64.449219 C 208.941406 53.445312 201.839844 45.84375 190.636719 42.464844 C 171.867188 36.808594 147.402344 44.234375 137.191406 54.445312 C 130.726562 60.90625 129.433594 68.957031 128.289062 76.0625 C 126.578125 86.726562 125.21875 95.144531 106.921875 93.199219 C 79.335938 90.253906 61.140625 93.8125 52.847656 103.765625 C 46.421875 111.476562 48.203125 120.644531 49.265625 124.226562 C 52.046875 133.609375 59.824219 136.808594 67.34375 139.902344 C 75.621094 143.304688 83.441406 146.519531 84.53125 157.605469 C 85.4375 166.800781 89.585938 174.300781 96.53125 179.296875 C 106.160156 186.222656 120.632812 187.9375 137.289062 184.128906 C 151.257812 180.929688 158.273438 187.34375 167.152344 195.460938 C 176.433594 203.945312 187.980469 214.503906 211.628906 215.761719 C 212.609375 215.8125 213.574219 215.835938 214.523438 215.835938 C 230.066406 215.835938 241.664062 208.910156 247.367188 196.128906 C 251.183594 187.570312 252.023438 176.941406 249.730469 166.199219 C 247.421875 155.378906 242.121094 145.390625 234.800781 138.078125 C 219.792969 123.078125 217.773438 108.398438 214.980469 88.074219 Z M 246.296875 195.652344 C 240.457031 208.738281 228.175781 215.46875 211.691406 214.589844 C 188.460938 213.355469 177.5625 203.390625 167.945312 194.597656 C 160.71875 187.992188 154.304688 182.128906 144.125 182.128906 C 141.949219 182.128906 139.597656 182.398438 137.027344 182.984375 C 120.707031 186.71875 106.566406 185.074219 97.214844 178.347656 C 90.550781 173.554688 86.570312 166.34375 85.699219 157.492188 C 84.539062 145.703125 76.023438 142.203125 67.789062 138.816406 C 60.523438 135.828125 53.007812 132.738281 50.386719 123.894531 C 49.378906 120.492188 47.683594 111.789062 53.746094 104.515625 C 61.664062 95.015625 80.011719 91.503906 106.796875 94.359375 C 126.203125 96.433594 127.707031 87.078125 129.445312 76.246094 C 130.558594 69.316406 131.824219 61.464844 138.019531 55.269531 C 147.976562 45.316406 172.453125 38.207031 190.296875 43.585938 C 201.0625 46.832031 207.882812 54.125 210.015625 64.683594 C 211.769531 73.355469 212.859375 81.257812 213.816406 88.234375 C 216.644531 108.78125 218.6875 123.628906 233.972656 138.902344 C 248.566406 153.492188 253.980469 178.417969 246.296875 195.652344 Z M 210.089844 91.09375 C 209.203125 84.628906 208.195312 77.300781 206.566406 69.25 C 204.503906 59.058594 197.929688 52.015625 187.554688 48.886719 C 170.183594 43.652344 147.546875 50.527344 138.09375 59.976562 C 132.109375 65.957031 130.910156 73.410156 129.851562 79.984375 C 128.273438 89.824219 127.019531 97.589844 110.144531 95.792969 C 84.621094 93.070312 67.789062 96.367188 60.109375 105.582031 C 54.15625 112.726562 55.800781 121.21875 56.785156 124.539062 C 59.363281 133.234375 66.5625 136.195312 73.527344 139.058594 C 81.167969 142.203125 88.386719 145.167969 89.394531 155.394531 C 90.230469 163.910156 94.074219 170.855469 100.507812 175.480469 C 109.417969 181.890625 122.8125 183.480469 138.226562 179.953125 C 151.121094 177.003906 157.597656 182.925781 165.796875 190.421875 C 174.382812 198.269531 185.066406 208.039062 206.949219 209.199219 C 207.855469 209.25 208.746094 209.273438 209.625 209.273438 C 224.015625 209.273438 234.753906 202.859375 240.03125 191.023438 C 243.5625 183.101562 244.339844 173.265625 242.222656 163.324219 C 240.085938 153.3125 235.179688 144.070312 228.402344 137.300781 C 214.542969 123.445312 212.675781 109.875 210.089844 91.09375 Z M 238.960938 190.546875 C 233.574219 202.628906 222.230469 208.839844 207.011719 208.03125 C 185.546875 206.890625 175.476562 197.683594 166.589844 189.558594 C 159.902344 183.445312 153.964844 178.019531 144.542969 178.019531 C 142.523438 178.019531 140.34375 178.265625 137.964844 178.8125 C 122.886719 182.261719 109.824219 180.742188 101.191406 174.53125 C 95.039062 170.105469 91.363281 163.449219 90.558594 155.277344 C 89.484375 144.355469 81.601562 141.113281 73.972656 137.976562 C 67.265625 135.21875 60.328125 132.363281 57.910156 124.207031 C 56.976562 121.066406 55.417969 113.039062 61.007812 106.328125 C 68.316406 97.558594 85.265625 94.320312 110.019531 96.957031 C 128.007812 98.875 129.394531 90.207031 131.007812 80.171875 C 132.039062 73.769531 133.203125 66.519531 138.921875 60.800781 C 148.121094 51.609375 170.730469 45.039062 187.214844 50.007812 C 197.152344 53.003906 203.445312 59.738281 205.417969 69.480469 C 207.039062 77.496094 208.042969 84.804688 208.929688 91.253906 C 211.542969 110.261719 213.433594 123.992188 227.574219 138.128906 C 241.058594 151.601562 246.0625 174.628906 238.960938 190.546875 Z M 205.203125 94.113281 C 204.386719 88.175781 203.460938 81.445312 201.964844 74.046875 C 200.070312 64.667969 194.019531 58.191406 184.472656 55.3125 C 168.5 50.496094 147.691406 56.820312 139 65.503906 C 133.488281 71.011719 132.386719 77.863281 131.414062 83.910156 C 130.0625 92.320312 129.050781 98.636719 117.644531 98.636719 C 116.355469 98.636719 114.933594 98.554688 113.367188 98.386719 C 89.910156 95.886719 74.433594 98.917969 67.371094 107.394531 C 61.886719 113.972656 63.40625 121.792969 64.308594 124.851562 C 66.683594 132.859375 73.308594 135.582031 79.714844 138.214844 C 86.71875 141.097656 93.335938 143.816406 94.257812 153.179688 C 95.027344 161.011719 98.5625 167.40625 104.484375 171.664062 C 112.679688 177.558594 124.992188 179.019531 139.164062 175.777344 C 150.984375 173.074219 156.921875 178.507812 164.445312 185.382812 C 172.335938 192.597656 182.152344 201.574219 202.269531 202.640625 C 203.101562 202.683594 203.921875 202.707031 204.730469 202.707031 C 217.964844 202.707031 227.84375 196.804688 232.699219 185.917969 C 239.507812 170.652344 234.910156 149.417969 222.011719 136.523438 C 209.289062 123.808594 207.574219 111.351562 205.203125 94.113281 Z M 231.628906 185.441406 C 226.6875 196.519531 216.296875 202.214844 202.332031 201.472656 C 182.636719 200.425781 173.390625 191.976562 165.234375 184.519531 C 159.085938 178.894531 153.628906 173.90625 144.957031 173.90625 C 143.101562 173.90625 141.09375 174.136719 138.902344 174.636719 C 125.066406 177.800781 113.085938 176.40625 105.167969 170.710938 C 99.53125 166.65625 96.160156 160.554688 95.421875 153.066406 C 94.433594 143.003906 87.175781 140.019531 80.160156 137.132812 C 74.007812 134.605469 67.648438 131.988281 65.433594 124.519531 C 64.582031 121.640625 63.152344 114.289062 68.273438 108.144531 C 74.972656 100.101562 90.523438 97.132812 113.242188 99.550781 C 129.808594 101.316406 131.085938 93.335938 132.574219 84.09375 C 133.515625 78.226562 134.585938 71.570312 139.828125 66.332031 C 148.265625 57.898438 169.007812 51.871094 184.132812 56.433594 C 193.242188 59.179688 199.011719 65.351562 200.816406 74.277344 C 202.308594 81.640625 203.230469 88.351562 204.042969 94.273438 C 206.445312 111.738281 208.183594 124.359375 221.183594 137.351562 C 233.554688 149.714844 238.140625 170.835938 231.628906 185.441406 Z M 200.316406 97.132812 C 199.574219 91.722656 198.730469 85.585938 197.367188 78.84375 C 195.632812 70.28125 190.109375 64.363281 181.390625 61.734375 C 166.816406 57.339844 147.832031 63.109375 139.902344 71.035156 C 134.871094 76.066406 133.867188 82.316406 132.976562 87.835938 C 131.613281 96.335938 130.617188 102.476562 116.589844 100.984375 C 95.195312 98.703125 81.082031 101.472656 74.632812 109.207031 C 69.621094 115.222656 71.003906 122.371094 71.835938 125.164062 C 74.003906 132.484375 80.054688 134.96875 85.902344 137.375 C 92.269531 139.992188 98.28125 142.464844 99.121094 150.964844 C 99.824219 158.117188 103.054688 163.957031 108.460938 167.84375 C 115.9375 173.226562 127.179688 174.558594 140.101562 171.601562 C 150.84375 169.144531 156.246094 174.085938 163.089844 180.339844 C 170.285156 186.917969 179.242188 195.105469 197.585938 196.082031 C 198.347656 196.121094 199.097656 196.140625 199.835938 196.140625 C 211.914062 196.140625 220.933594 190.753906 225.367188 180.8125 C 231.578125 166.882812 227.386719 147.511719 215.617188 135.746094 C 204.039062 124.175781 202.476562 112.832031 200.316406 97.132812 Z M 224.296875 180.335938 C 219.804688 190.410156 210.332031 195.59375 197.648438 194.910156 C 179.722656 193.960938 171.308594 186.265625 163.882812 179.476562 C 158.269531 174.347656 153.289062 169.792969 145.375 169.792969 C 143.675781 169.792969 141.84375 170.003906 139.839844 170.460938 C 127.246094 173.34375 116.347656 172.074219 109.144531 166.894531 C 104.019531 163.207031 100.957031 157.660156 100.285156 150.851562 C 99.378906 141.652344 92.753906 138.925781 86.347656 136.292969 C 80.496094 133.886719 74.96875 131.613281 72.957031 124.832031 C 72.183594 122.21875 70.882812 115.535156 75.535156 109.957031 C 81.628906 102.644531 95.78125 99.941406 116.464844 102.148438 C 131.605469 103.761719 132.777344 96.464844 134.136719 88.019531 C 134.996094 82.679688 135.96875 76.625 140.730469 71.863281 C 148.410156 64.1875 167.285156 58.703125 181.050781 62.855469 C 189.332031 65.351562 194.578125 70.960938 196.21875 79.078125 C 197.574219 85.78125 198.414062 91.898438 199.15625 97.292969 C 201.347656 113.21875 202.929688 124.722656 214.789062 136.574219 C 226.046875 147.824219 230.222656 167.046875 224.296875 180.335938 Z M 195.429688 100.152344 C 194.757812 95.265625 193.996094 89.730469 192.765625 83.644531 C 191.199219 75.890625 186.199219 70.535156 178.304688 68.15625 C 165.136719 64.1875 147.976562 69.402344 140.808594 76.566406 C 136.25 81.117188 135.34375 86.773438 134.542969 91.757812 C 133.3125 99.402344 132.425781 104.917969 119.8125 103.578125 C 100.488281 101.519531 87.726562 104.023438 81.894531 111.023438 C 77.355469 116.472656 78.609375 122.945312 79.359375 125.476562 C 81.324219 132.109375 86.796875 134.359375 92.085938 136.535156 C 97.816406 138.890625 103.230469 141.117188 103.980469 148.753906 C 104.621094 155.226562 107.542969 160.507812 112.433594 164.027344 C 119.199219 168.894531 129.359375 170.101562 141.039062 167.429688 C 150.703125 165.21875 155.574219 169.667969 161.738281 175.300781 C 168.238281 181.246094 176.328125 188.640625 192.910156 189.523438 C 193.597656 189.558594 194.273438 189.578125 194.941406 189.578125 C 205.867188 189.578125 214.023438 184.703125 218.035156 175.707031 C 223.648438 163.117188 219.863281 145.601562 209.222656 134.972656 C 198.785156 124.539062 197.378906 114.308594 195.429688 100.152344 Z M 216.964844 175.230469 C 212.921875 184.300781 204.394531 188.964844 192.96875 188.351562 C 176.808594 187.496094 169.222656 180.558594 162.527344 174.4375 C 157.453125 169.800781 152.949219 165.683594 145.789062 165.683594 C 144.253906 165.683594 142.59375 165.871094 140.78125 166.285156 C 129.429688 168.882812 119.605469 167.742188 113.121094 163.074219 C 108.507812 159.757812 105.75 154.765625 105.148438 148.636719 C 104.328125 140.300781 98.332031 137.835938 92.53125 135.449219 C 87.265625 133.285156 82.289062 131.238281 80.480469 125.140625 C 79.785156 122.792969 78.617188 116.785156 82.796875 111.773438 C 88.285156 105.1875 101.042969 102.753906 119.6875 104.742188 C 133.402344 106.207031 134.46875 99.597656 135.699219 91.945312 C 136.472656 87.132812 137.347656 81.679688 141.636719 77.394531 C 148.554688 70.480469 165.5625 65.539062 177.96875 69.277344 C 185.421875 71.523438 190.140625 76.574219 191.617188 83.875 C 192.84375 89.925781 193.601562 95.445312 194.269531 100.3125 C 196.25 114.695312 197.679688 125.089844 208.394531 135.796875 C 218.539062 145.9375 222.304688 163.257812 216.964844 175.230469 Z M 190.542969 103.171875 C 189.945312 98.8125 189.265625 93.875 188.164062 88.441406 C 186.761719 81.5 182.285156 76.707031 175.222656 74.578125 C 163.457031 71.027344 148.117188 75.695312 141.710938 82.097656 C 137.632812 86.171875 136.820312 91.226562 136.105469 95.683594 C 135.015625 102.464844 134.226562 107.363281 123.035156 106.175781 C 105.769531 104.332031 94.375 106.574219 89.15625 112.835938 C 85.085938 117.71875 86.207031 123.519531 86.882812 125.785156 C 88.644531 131.730469 93.539062 133.746094 98.273438 135.691406 C 103.367188 137.785156 108.175781 139.765625 108.84375 146.539062 C 109.414062 152.332031 112.03125 157.058594 116.410156 160.207031 C 122.460938 164.558594 131.539062 165.640625 141.976562 163.253906 C 150.570312 161.289062 154.898438 165.246094 160.382812 170.261719 C 166.191406 175.570312 173.414062 182.175781 188.226562 182.960938 C 188.84375 182.996094 189.449219 183.011719 190.042969 183.011719 C 199.816406 183.011719 207.113281 178.648438 210.699219 170.601562 C 215.71875 159.347656 212.335938 143.695312 202.828125 134.195312 C 193.53125 124.902344 192.28125 115.789062 190.542969 103.171875 Z M 209.632812 170.125 C 206.035156 178.191406 198.453125 182.335938 188.289062 181.792969 C 173.898438 181.027344 167.136719 174.847656 161.171875 169.398438 C 156.636719 165.25 152.613281 161.570312 146.203125 161.570312 C 144.828125 161.570312 143.34375 161.742188 141.714844 162.113281 C 131.613281 164.425781 122.867188 163.410156 117.09375 159.257812 C 112.996094 156.3125 110.546875 151.871094 110.011719 146.425781 C 109.273438 138.949219 103.910156 136.742188 98.71875 134.609375 C 94.035156 132.683594 89.609375 130.863281 88.003906 125.453125 C 87.386719 123.367188 86.347656 118.035156 90.058594 113.585938 C 94.9375 107.730469 106.300781 105.570312 122.910156 107.339844 C 135.214844 108.652344 136.160156 102.726562 137.261719 95.871094 C 137.949219 91.585938 138.730469 86.730469 142.539062 82.925781 C 148.699219 76.769531 163.84375 72.371094 174.886719 75.699219 C 179.503906 77.09375 185.359375 80.472656 187.019531 88.675781 C 188.109375 94.070312 188.785156 98.992188 189.382812 103.332031 C 191.148438 116.175781 192.425781 125.453125 202 135.023438 C 211.03125 144.050781 214.382812 159.46875 209.632812 170.125 Z M 185.65625 106.191406 C 185.128906 102.359375 184.53125 98.015625 183.566406 93.242188 C 182.328125 87.113281 178.378906 82.882812 172.140625 81 C 161.777344 77.875 148.261719 81.984375 142.617188 87.625 C 139.015625 91.226562 138.300781 95.679688 137.667969 99.609375 C 136.714844 105.53125 136.019531 109.808594 126.257812 108.769531 C 111.058594 107.148438 101.019531 109.128906 96.417969 114.648438 C 92.820312 118.96875 93.8125 124.09375 94.40625 126.097656 C 95.964844 131.355469 100.28125 133.132812 104.457031 134.847656 C 108.914062 136.683594 113.125 138.414062 113.707031 144.324219 C 114.210938 149.4375 116.519531 153.609375 120.386719 156.390625 C 125.71875 160.226562 133.722656 161.183594 142.917969 159.078125 C 150.429688 157.359375 154.226562 160.828125 159.027344 165.222656 C 164.140625 169.894531 170.503906 175.710938 183.546875 176.40625 C 184.089844 176.433594 184.621094 176.449219 185.148438 176.449219 C 193.765625 176.449219 200.203125 172.597656 203.367188 165.5 C 207.792969 155.582031 204.808594 141.789062 196.433594 133.417969 C 188.28125 125.269531 187.179688 117.265625 185.65625 106.191406 Z M 202.296875 165.019531 C 199.152344 172.078125 192.523438 175.707031 183.609375 175.234375 C 170.984375 174.5625 165.054688 169.140625 159.820312 164.355469 C 155.820312 160.703125 152.273438 157.457031 146.621094 157.457031 C 145.40625 157.457031 144.089844 157.605469 142.65625 157.933594 C 133.792969 159.960938 126.128906 159.078125 121.070312 155.4375 C 117.484375 152.859375 115.34375 148.976562 114.875 144.210938 C 114.222656 137.597656 109.484375 135.648438 104.90625 133.765625 C 100.804688 132.078125 96.929688 130.484375 95.53125 125.765625 C 94.988281 123.941406 94.082031 119.28125 97.320312 115.398438 C 101.59375 110.269531 111.558594 108.378906 126.132812 109.933594 C 137.011719 111.09375 137.890625 105.601562 138.824219 99.792969 C 139.429688 96.039062 140.113281 91.785156 143.445312 88.453125 C 148.84375 83.058594 162.121094 79.203125 171.804688 82.121094 C 175.847656 83.339844 180.96875 86.296875 182.417969 93.472656 C 183.378906 98.210938 183.972656 102.535156 184.496094 106.347656 C 186.050781 117.652344 187.175781 125.816406 195.609375 134.246094 C 203.523438 142.160156 206.464844 155.679688 202.296875 165.019531 Z M 180.769531 109.210938 C 180.316406 105.90625 179.800781 102.160156 178.964844 98.039062 C 177.890625 92.726562 174.464844 89.054688 169.058594 87.425781 C 160.09375 84.722656 148.402344 88.277344 143.519531 93.15625 C 140.394531 96.277344 139.777344 100.132812 139.230469 103.53125 C 138.417969 108.597656 137.824219 112.25 129.480469 111.363281 C 116.347656 109.964844 107.667969 111.679688 103.679688 116.464844 C 100.550781 120.21875 101.414062 124.667969 101.929688 126.410156 C 103.285156 130.980469 107.027344 132.519531 110.644531 134.007812 C 114.464844 135.578125 118.074219 137.0625 118.570312 142.109375 C 119.003906 146.542969 121.007812 150.160156 124.363281 152.570312 C 128.980469 155.894531 135.902344 156.722656 143.855469 154.902344 C 150.292969 153.429688 153.550781 156.410156 157.675781 160.179688 C 162.09375 164.21875 167.589844 169.246094 178.867188 169.84375 C 179.335938 169.871094 179.796875 169.882812 180.253906 169.882812 C 187.71875 169.882812 193.292969 166.546875 196.035156 160.394531 C 199.863281 151.8125 197.285156 139.882812 190.039062 132.640625 C 183.027344 125.632812 182.082031 118.746094 180.769531 109.210938 Z M 194.964844 159.917969 C 192.265625 165.96875 186.574219 169.089844 178.925781 168.675781 C 168.070312 168.097656 162.96875 163.433594 158.464844 159.316406 C 155.003906 156.152344 151.933594 153.347656 147.035156 153.347656 C 145.980469 153.347656 144.839844 153.476562 143.59375 153.761719 C 135.972656 155.503906 129.386719 154.746094 125.042969 151.621094 C 121.972656 149.414062 120.136719 146.082031 119.734375 141.996094 C 119.167969 136.246094 115.0625 134.558594 111.089844 132.925781 C 107.570312 131.476562 104.246094 130.109375 103.050781 126.078125 C 102.589844 124.515625 101.8125 120.53125 104.578125 117.210938 C 107.136719 114.144531 113.515625 110.839844 129.355469 112.527344 C 138.804688 113.535156 139.574219 108.765625 140.386719 103.71875 C 140.902344 100.492188 141.492188 96.835938 144.347656 93.984375 C 148.988281 89.347656 160.398438 86.035156 168.71875 88.546875 C 172.183594 89.589844 176.574219 92.125 177.816406 98.269531 C 178.640625 102.355469 179.15625 106.082031 179.605469 109.371094 C 180.949219 119.132812 181.921875 126.183594 189.210938 133.46875 C 196.015625 140.273438 198.546875 151.890625 194.964844 159.917969 Z M 194.964844 159.917969 " fill-opacity="1" fill-rule="nonzero"/></g></svg>