<svg xmlns="http://www.w3.org/2000/svg" xmlns:xlink="http://www.w3.org/1999/xlink" width="40" zoomAndPan="magnify" viewBox="0 0 30 30.000001" height="40" preserveAspectRatio="xMidYMid meet" version="1.0"><defs><clipPath id="0f86d1b04d"><path d="M 0.484375 0 L 29.515625 0 L 29.515625 29.03125 L 0.484375 29.03125 Z M 0.484375 0 " clip-rule="nonzero"/></clipPath><clipPath id="c8604a9729"><path d="M 1.5 1.015625 L 28.355469 1.015625 L 28.355469 27.871094 L 1.5 27.871094 Z M 1.5 1.015625 " clip-rule="nonzero"/></clipPath><clipPath id="0b8cd7d7f8"><path d="M 4.546875 2.902344 L 26.613281 2.902344 L 26.613281 26.128906 L 4.546875 26.128906 Z M 4.546875 2.902344 " clip-rule="nonzero"/></clipPath><clipPath id="11058d8428"><path d="M 5.128906 4.644531 L 24.726562 4.644531 L 24.726562 24.242188 L 5.128906 24.242188 Z M 5.128906 4.644531 " clip-rule="nonzero"/></clipPath></defs><g clip-path="url(#0f86d1b04d)"><path fill="#ffffff" d="M 0.484375 0 L 29.515625 0 L 29.515625 29.03125 L 0.484375 29.03125 Z M 0.484375 0 " fill-opacity="1" fill-rule="nonzero"/><path fill="#ffffff" d="M 0.484375 0 L 29.515625 0 L 29.515625 29.03125 L 0.484375 29.03125 Z M 0.484375 0 " fill-opacity="1" fill-rule="nonzero"/></g><g clip-path="url(#c8604a9729)"><path fill="#202020" d="M 25.914062 1.015625 L 3.941406 1.015625 C 2.59375 1.015625 1.5 2.109375 1.5 3.457031 L 1.5 25.429688 C 1.5 26.777344 2.59375 27.871094 3.941406 27.871094 L 25.914062 27.871094 C 27.261719 27.871094 28.355469 26.777344 28.355469 25.429688 L 28.355469 3.457031 C 28.355469 2.109375 27.261719 1.015625 25.914062 1.015625 Z M 24.3125 12.582031 C 24.15625 12.59375 23.996094 12.605469 23.832031 12.605469 C 22.007812 12.605469 20.40625 11.667969 19.472656 10.25 C 19.472656 13.96875 19.472656 18.207031 19.472656 18.277344 C 19.472656 21.554688 16.8125 24.210938 13.535156 24.210938 C 10.261719 24.207031 7.601562 21.550781 7.601562 18.273438 C 7.601562 14.996094 10.261719 12.339844 13.535156 12.339844 C 13.660156 12.339844 13.78125 12.351562 13.902344 12.359375 L 13.902344 15.285156 C 13.78125 15.269531 13.664062 15.246094 13.535156 15.246094 C 11.863281 15.246094 10.507812 16.605469 10.507812 18.277344 C 10.507812 19.949219 11.863281 21.304688 13.535156 21.304688 C 15.210938 21.304688 16.6875 19.988281 16.6875 18.3125 C 16.6875 18.246094 16.71875 4.679688 16.71875 4.679688 L 19.511719 4.679688 C 19.773438 7.179688 21.792969 9.152344 24.3125 9.332031 Z M 24.3125 12.582031 " fill-opacity="1" fill-rule="nonzero"/></g><g clip-path="url(#0b8cd7d7f8)"><path fill="#202020" d="M 4.546875 2.902344 L 26.59375 2.902344 L 26.59375 26.175781 L 4.546875 26.175781 Z M 4.546875 2.902344 " fill-opacity="1" fill-rule="nonzero"/></g><g clip-path="url(#11058d8428)"><path fill="#ffffff" d="M 14.921875 6.410156 C 17.539062 6.410156 17.847656 6.421875 18.882812 6.46875 C 19.835938 6.511719 20.355469 6.667969 20.703125 6.808594 C 21.15625 6.984375 21.484375 7.199219 21.828125 7.542969 C 22.171875 7.886719 22.382812 8.210938 22.5625 8.667969 C 22.695312 9.011719 22.855469 9.53125 22.902344 10.488281 C 22.949219 11.523438 22.957031 11.832031 22.957031 14.445312 C 22.957031 17.0625 22.949219 17.371094 22.902344 18.40625 C 22.859375 19.359375 22.699219 19.878906 22.5625 20.226562 C 22.386719 20.679688 22.171875 21.007812 21.828125 21.351562 C 21.484375 21.695312 21.15625 21.902344 20.703125 22.085938 C 20.359375 22.21875 19.839844 22.375 18.882812 22.421875 C 17.847656 22.472656 17.539062 22.480469 14.921875 22.480469 C 12.308594 22.480469 12 22.472656 10.964844 22.421875 C 10.011719 22.378906 9.492188 22.222656 9.144531 22.085938 C 8.6875 21.910156 8.363281 21.695312 8.019531 21.351562 C 7.675781 21.007812 7.464844 20.679688 7.285156 20.226562 C 7.152344 19.882812 6.992188 19.363281 6.945312 18.40625 C 6.898438 17.371094 6.890625 17.0625 6.890625 14.445312 C 6.890625 11.832031 6.898438 11.523438 6.945312 10.488281 C 6.988281 9.535156 7.148438 9.015625 7.285156 8.667969 C 7.460938 8.210938 7.675781 7.886719 8.019531 7.542969 C 8.363281 7.199219 8.6875 6.988281 9.144531 6.808594 C 9.488281 6.675781 10.007812 6.515625 10.964844 6.46875 C 12 6.421875 12.308594 6.410156 14.921875 6.410156 M 14.921875 4.648438 C 12.261719 4.648438 11.929688 4.660156 10.882812 4.707031 C 9.839844 4.753906 9.125 4.921875 8.503906 5.164062 C 7.859375 5.410156 7.316406 5.746094 6.769531 6.292969 C 6.226562 6.835938 5.894531 7.382812 5.644531 8.027344 C 5.402344 8.648438 5.238281 9.363281 5.1875 10.40625 C 5.140625 11.449219 5.128906 11.785156 5.128906 14.441406 C 5.128906 17.105469 5.140625 17.433594 5.1875 18.480469 C 5.238281 19.523438 5.402344 20.238281 5.644531 20.859375 C 5.894531 21.503906 6.226562 22.050781 6.773438 22.59375 C 7.320312 23.140625 7.863281 23.476562 8.507812 23.722656 C 9.128906 23.964844 9.84375 24.132812 10.886719 24.179688 C 11.929688 24.226562 12.265625 24.238281 14.925781 24.238281 C 17.589844 24.238281 17.921875 24.226562 18.96875 24.179688 C 20.011719 24.132812 20.722656 23.964844 21.347656 23.722656 C 21.992188 23.476562 22.535156 23.140625 23.082031 22.59375 C 23.625 22.050781 23.960938 21.503906 24.210938 20.859375 C 24.449219 20.238281 24.617188 19.523438 24.664062 18.480469 C 24.714844 17.4375 24.726562 17.105469 24.726562 14.441406 C 24.726562 11.777344 24.714844 11.449219 24.664062 10.402344 C 24.617188 9.359375 24.449219 8.644531 24.210938 8.023438 C 23.960938 7.378906 23.625 6.832031 23.082031 6.289062 C 22.535156 5.742188 21.992188 5.40625 21.347656 5.160156 C 20.722656 4.917969 20.011719 4.75 18.96875 4.703125 C 17.921875 4.660156 17.585938 4.648438 14.921875 4.648438 " fill-opacity="1" fill-rule="nonzero"/></g><path fill="#ffffff" d="M 14.921875 9.414062 C 12.144531 9.414062 9.894531 11.664062 9.894531 14.441406 C 9.894531 17.21875 12.148438 19.472656 14.925781 19.472656 C 17.707031 19.472656 19.960938 17.222656 19.960938 14.441406 C 19.957031 11.664062 17.703125 9.414062 14.921875 9.414062 M 14.921875 17.707031 C 13.121094 17.707031 11.660156 16.25 11.660156 14.445312 C 11.660156 12.640625 13.121094 11.183594 14.921875 11.183594 C 16.726562 11.183594 18.1875 12.640625 18.1875 14.445312 C 18.191406 16.246094 16.726562 17.707031 14.921875 17.707031 " fill-opacity="1" fill-rule="nonzero"/><path fill="#ffffff" d="M 21.328125 9.214844 C 21.328125 9.863281 20.800781 10.390625 20.152344 10.390625 C 19.503906 10.390625 18.976562 9.863281 18.976562 9.214844 C 18.976562 8.566406 19.503906 8.039062 20.152344 8.039062 C 20.800781 8.039062 21.328125 8.5625 21.328125 9.214844 " fill-opacity="1" fill-rule="nonzero"/></svg>