<svg xmlns="http://www.w3.org/2000/svg" xmlns:xlink="http://www.w3.org/1999/xlink" width="40" zoomAndPan="magnify" viewBox="0 0 30 30.000001" height="40" preserveAspectRatio="xMidYMid meet" version="1.0"><defs><clipPath id="3ba85c6662"><path d="M 0.484375 0 L 29.515625 0 L 29.515625 29.03125 L 0.484375 29.03125 Z M 0.484375 0 " clip-rule="nonzero"/></clipPath><clipPath id="83c4672360"><path d="M 1.5 1.015625 L 28.355469 1.015625 L 28.355469 27.871094 L 1.5 27.871094 Z M 1.5 1.015625 " clip-rule="nonzero"/></clipPath></defs><g clip-path="url(#3ba85c6662)"><path fill="#ffffff" d="M 0.484375 0 L 29.515625 0 L 29.515625 29.03125 L 0.484375 29.03125 Z M 0.484375 0 " fill-opacity="1" fill-rule="nonzero"/><path fill="#ffffff" d="M 0.484375 0 L 29.515625 0 L 29.515625 29.03125 L 0.484375 29.03125 Z M 0.484375 0 " fill-opacity="1" fill-rule="nonzero"/></g><g clip-path="url(#83c4672360)"><path fill="#202020" d="M 26.113281 1.015625 L 3.757812 1.015625 C 2.519531 1.015625 1.527344 2.023438 1.527344 3.246094 L 1.527344 25.640625 C 1.527344 26.875 2.535156 27.871094 3.757812 27.871094 L 26.097656 27.871094 C 27.332031 27.871094 28.328125 26.863281 28.328125 25.640625 L 28.328125 3.246094 C 28.339844 2.023438 27.347656 1.015625 26.113281 1.015625 Z M 9.464844 23.167969 L 5.503906 23.167969 L 5.503906 11.265625 L 9.464844 11.265625 Z M 7.476562 9.828125 C 6.230469 9.828125 5.222656 8.820312 5.222656 7.570312 C 5.222656 6.324219 6.230469 5.316406 7.476562 5.316406 C 8.726562 5.316406 9.734375 6.324219 9.734375 7.570312 C 9.734375 8.820312 8.726562 9.828125 7.476562 9.828125 Z M 24.378906 23.167969 L 20.402344 23.167969 L 20.308594 16.101562 C 20.308594 16.101562 20.402344 14.222656 18.347656 14.234375 C 16.289062 14.25 16.007812 16.101562 16.007812 16.101562 L 16.007812 23.167969 L 12.003906 23.167969 L 12.003906 11.265625 L 15.847656 11.265625 L 15.847656 12.90625 C 15.847656 12.90625 16.007812 12.367188 16.894531 11.738281 C 17.78125 11.105469 19.246094 10.972656 19.878906 10.996094 C 20.507812 11.023438 21.367188 10.917969 22.804688 11.910156 C 24.351562 12.972656 24.390625 15.753906 24.390625 15.753906 Z M 24.378906 23.167969 " fill-opacity="1" fill-rule="nonzero"/></g></svg>