<svg version="1.1" id="Layer_1" xmlns="http://www.w3.org/2000/svg" xmlns:xlink="http://www.w3.org/1999/xlink" x="0px" y="0px"
	 width="100%" viewBox="0 0 938 313" enable-background="new 0 0 938 313" xml:space="preserve">
<path fill="#FFFEFE" opacity="1.000000" stroke="none" 
	d="
M684.000000,314.000000 
	C456.000000,314.000000 228.500000,314.000000 1.000000,314.000000 
	C1.000000,209.666672 1.000000,105.333336 1.000000,1.000000 
	C313.666656,1.000000 626.333313,1.000000 939.000000,1.000000 
	C939.000000,105.333336 939.000000,209.666672 939.000000,314.000000 
	C854.166687,314.000000 769.333313,314.000000 684.000000,314.000000 
M469.068542,106.930901 
	C469.068542,106.930901 469.197021,106.914597 469.019775,106.376953 
	C468.709778,106.180519 468.399750,105.984085 468.074646,105.924866 
	C468.074646,105.924866 468.211548,105.906914 468.038696,105.362808 
	C467.727234,105.164009 467.415771,104.965202 467.087097,104.912628 
	C467.087097,104.912628 467.232788,104.891342 467.058228,104.344398 
	C466.740631,104.150330 466.423004,103.956253 466.091522,103.929115 
	C466.091522,103.929115 466.257599,103.907265 466.150238,103.274681 
	C465.777252,102.808212 465.404266,102.341743 464.812073,101.275948 
	C463.522491,100.192108 462.232880,99.108269 460.640503,97.452309 
	C459.102753,96.283173 457.564972,95.114037 456.004852,94.001396 
	C456.004852,94.001396 456.056427,93.969193 455.760651,93.382530 
	C454.182465,92.217529 452.604309,91.052536 450.831360,89.415710 
	C450.527435,89.287346 450.223541,89.158981 449.657990,88.500671 
	C449.143433,88.236549 448.628906,87.972427 448.114136,87.863670 
	C448.114136,87.863670 448.259735,87.809418 447.966888,87.203758 
	C446.028595,86.075790 444.090302,84.947823 441.948883,83.253212 
	C441.296936,82.832619 440.644958,82.412025 439.746094,81.779037 
	C439.746094,81.779037 439.431702,81.863983 439.030518,81.198112 
	C437.951355,80.361450 436.872192,79.524788 434.737946,77.870125 
	C435.094452,80.677956 435.424133,82.204758 435.459961,83.738426 
	C435.631805,91.091270 436.125153,98.469376 435.697937,105.791458 
	C435.431702,110.355057 432.426239,114.770050 427.671967,114.515892 
	C421.122803,114.165771 420.667236,118.225594 419.100769,122.953995 
	C413.872253,133.671494 411.064178,144.948410 410.908844,156.914383 
	C410.861877,160.533127 409.757263,163.969376 405.491455,164.769897 
	C401.363861,165.544464 398.547211,163.431396 396.436371,160.090744 
	C395.757843,159.016891 394.987976,158.000763 394.156433,156.271683 
	C394.156433,152.624222 394.156433,148.976761 394.156433,145.329300 
	C386.451752,152.595245 382.906158,161.322601 380.505066,170.812668 
	C377.349060,183.286423 381.541626,193.514069 389.157776,203.687164 
	C391.422546,206.495468 393.687347,209.303787 396.035034,212.697052 
	C396.332886,213.420456 396.630737,214.143875 396.192902,215.220947 
	C393.000763,214.343628 389.808655,213.466324 386.616516,212.589005 
	C386.381622,212.828064 386.146698,213.067108 385.911804,213.306168 
	C389.528595,216.347717 393.145386,219.389267 397.155121,222.968781 
	C399.738281,224.526718 402.321411,226.084641 405.290680,228.152908 
	C410.205994,230.157043 415.121338,232.161179 420.669891,234.545029 
	C422.082825,234.948364 423.495758,235.351700 425.092682,236.191849 
	C425.713623,236.147430 426.334534,236.103012 427.536316,235.933014 
	C427.725708,235.874924 427.915100,235.816818 428.685699,236.052185 
	C429.105988,236.162140 429.526276,236.272095 430.656982,236.813126 
	C436.847046,236.475281 443.037140,236.137436 449.850983,235.685287 
	C451.252594,235.221329 452.654175,234.757355 454.875000,234.280716 
	C458.590363,233.016663 462.305725,231.752594 466.698761,230.492035 
	C469.143127,229.303619 471.587494,228.115189 474.735168,226.839462 
	C479.699249,223.924515 484.663300,221.009567 489.627380,218.094620 
	C489.447723,217.675858 489.268036,217.257111 489.088379,216.838348 
	C487.280151,216.838348 485.471924,216.838348 483.377350,216.838348 
	C483.782196,215.003387 484.091766,213.600204 485.056641,212.150299 
	C486.758270,210.258224 488.459900,208.366135 490.777679,206.157578 
	C509.482605,187.116455 502.189697,166.830978 493.567383,145.509384 
	C492.208893,148.997162 491.173370,151.655746 489.507690,154.643402 
	C483.109253,157.882690 478.665863,155.259552 478.703552,148.136627 
	C478.739471,141.351517 479.009186,134.567978 479.092682,127.782715 
	C479.156799,122.571754 477.764832,117.820183 474.234772,113.874336 
	C474.234772,113.874336 474.243530,113.824875 474.152039,113.137718 
	C472.807892,111.371513 471.463745,109.605301 470.086365,107.925560 
	C470.086365,107.925560 470.178986,107.923836 470.016022,107.383224 
	C469.704895,107.189537 469.393768,106.995857 469.068542,106.930901 
M391.567535,124.587227 
	C391.567535,124.587227 391.493622,124.636101 390.893799,124.893776 
	C386.466248,129.477554 385.945801,135.037155 386.655273,141.315094 
	C386.847260,141.642899 387.039246,141.970703 387.231171,142.298492 
	C387.575134,141.888138 387.919098,141.477783 388.752472,140.761841 
	C389.073578,140.305191 389.394714,139.848526 390.333771,139.185104 
	C398.312500,131.917206 400.920105,120.927208 397.764832,115.114868 
	C395.830017,118.015800 393.846558,120.989670 391.586670,124.162064 
	C391.586670,124.162064 391.549774,124.500412 391.567535,124.587227 
M617.539612,152.272919 
	C616.896606,152.107712 616.253601,151.942520 614.918640,151.599518 
	C620.792358,147.866333 624.725159,143.195190 626.062927,136.652557 
	C629.634277,119.185616 620.063660,105.179810 601.416870,103.284477 
	C584.748657,101.590256 567.875427,101.913422 550.931763,101.340996 
	C550.931763,137.393875 550.931763,172.602234 550.931763,207.794662 
	C567.091919,207.794662 582.917847,207.918991 598.739319,207.710022 
	C602.858276,207.655609 607.030701,206.845551 611.062744,205.892334 
	C623.856201,202.867813 630.894653,195.061447 632.762695,182.238617 
	C635.023987,166.715942 630.291931,157.057724 617.539612,152.272919 
M81.941574,190.820618 
	C76.640900,191.178360 71.321472,192.009674 66.043228,191.800735 
	C52.786808,191.275940 43.609417,183.734314 40.052052,170.903809 
	C37.421844,161.417297 37.209278,151.768250 39.341587,142.206940 
	C42.147369,129.625748 49.281513,120.472252 62.536133,118.546913 
	C68.927277,117.618546 75.808937,118.559593 82.241058,119.817261 
	C89.629219,121.261887 94.847420,126.298462 98.139587,133.094925 
	C99.427605,135.753967 100.431885,138.550415 101.691841,141.589249 
	C107.795387,139.921921 113.835526,138.271927 119.850037,136.628922 
	C117.442276,123.656487 109.331116,113.092628 97.190147,107.049500 
	C85.971931,101.465668 73.986420,99.964561 61.695713,101.192123 
	C41.582466,103.200974 26.073469,115.553276 21.302809,135.161331 
	C18.953621,144.816849 18.354595,155.355331 19.322451,165.263840 
	C21.231258,184.805466 31.165154,199.736572 50.537125,205.829819 
	C69.770157,211.879395 88.316269,211.452026 103.250946,193.398865 
	C103.250946,198.631241 103.250946,203.158707 103.250946,207.651672 
	C109.547356,207.651672 115.265320,207.651672 120.790237,207.651672 
	C120.790237,189.025284 120.790237,170.753799 120.790237,152.347900 
	C107.951653,152.347900 95.370422,152.347900 82.458000,152.347900 
	C81.952492,157.241714 81.467476,161.937088 80.946106,166.984436 
	C88.519127,166.984436 95.641800,166.984436 102.793945,166.984436 
	C101.484489,179.153671 94.738564,186.986557 81.941574,190.820618 
M713.537659,154.071350 
	C705.884033,136.559784 687.726013,127.835693 668.155273,132.267197 
	C649.858643,136.410202 639.442322,151.112091 639.948059,172.079483 
	C640.408936,191.189255 652.021057,205.077209 670.129150,208.175613 
	C690.011414,211.577606 707.613770,202.947601 713.877808,186.459732 
	C708.924133,184.425171 703.965881,182.388718 699.140686,180.406921 
	C691.794312,191.123550 682.345947,195.265213 672.490417,192.464432 
	C665.216614,190.397339 660.782043,184.348572 660.604614,175.846603 
	C679.006958,175.846603 697.402771,175.846603 717.057312,175.846603 
	C715.925232,168.434494 714.883789,161.615509 713.537659,154.071350 
M751.506165,209.047409 
	C760.440308,207.685272 767.940002,203.451370 774.986694,196.529892 
	C774.986694,200.889999 774.986694,204.287659 774.986694,207.622803 
	C781.751465,207.622803 788.112366,207.622803 794.125793,207.622803 
	C794.125793,190.105392 794.623962,172.955276 793.939697,155.852463 
	C793.526672,145.529465 787.331665,138.342682 777.508911,134.696045 
	C766.466492,130.596619 755.268860,130.675659 744.279297,134.558716 
	C734.680420,137.950394 727.867310,144.197144 726.252319,155.237396 
	C732.558350,156.613739 738.512756,157.913345 744.400208,159.198334 
	C748.807861,147.862503 757.984924,143.335159 768.215454,147.127731 
	C772.545410,148.732895 775.363037,152.886948 774.876709,157.211334 
	C774.363708,161.772980 770.579163,162.298798 767.180603,162.929214 
	C763.918884,163.534286 760.547424,163.530685 757.269714,164.070801 
	C750.241638,165.228989 743.006165,165.832657 736.288635,168.003372 
	C726.641541,171.120728 722.224670,179.449951 723.182007,190.099457 
	C724.066223,199.935226 730.112488,206.997971 739.732239,208.753754 
	C743.280396,209.401367 747.015686,209.024124 751.506165,209.047409 
M199.065872,201.432800 
	C199.051010,187.618149 199.181351,173.801392 198.979935,159.989471 
	C198.783249,146.503174 192.263443,137.733948 179.342987,133.822922 
	C167.626678,130.276382 155.919495,130.880920 144.850311,136.241943 
	C137.199188,139.947540 131.955002,145.899261 130.815323,155.228745 
	C137.007965,156.590210 142.941681,157.894760 148.958176,159.217499 
	C149.362228,158.304459 149.669952,157.730072 149.877716,157.121536 
	C153.173248,147.469513 165.514343,142.868683 174.438354,147.961044 
	C178.224472,150.121521 179.557587,153.559341 179.190018,157.648682 
	C178.819321,161.772858 175.221725,162.229935 172.220505,162.838242 
	C168.813324,163.528839 165.265793,163.497696 161.827377,164.069595 
	C154.643494,165.264496 147.247803,165.903046 140.386017,168.140610 
	C131.294098,171.105423 127.267456,178.719528 127.744423,189.025803 
	C128.202164,198.916565 132.989288,205.613739 142.260895,208.138123 
	C154.799469,211.551987 165.860748,207.994537 175.708282,199.949783 
	C176.752075,199.097092 177.757294,198.197159 179.463531,196.732864 
	C179.463531,201.014359 179.463531,204.293274 179.463531,207.687164 
	C186.180771,207.687164 192.550705,207.687164 199.065872,207.687164 
	C199.065872,205.716766 199.065872,204.064606 199.065872,201.432800 
M328.552155,174.500244 
	C328.552155,160.429626 328.552155,146.359024 328.552155,132.437424 
	C321.548004,132.437424 315.301575,132.437424 308.900024,132.437424 
	C308.900024,134.267792 308.931213,135.761612 308.895050,137.253769 
	C308.616943,148.726547 308.613190,160.216019 307.935394,171.665451 
	C307.499725,179.024551 305.483490,186.146683 300.265015,191.783478 
	C296.640717,195.698349 292.054169,197.705673 286.769257,195.991257 
	C281.771698,194.370056 281.191956,189.674927 281.007751,185.349609 
	C280.632660,176.540771 280.583618,167.716064 280.508789,158.896973 
	C280.434204,150.107071 280.492432,141.316071 280.492432,132.320602 
	C273.782471,132.320602 267.548615,132.320602 261.102570,132.320602 
	C261.102570,149.637161 261.044861,166.735382 261.160400,183.832413 
	C261.179291,186.626678 261.767639,189.462891 262.428528,192.198608 
	C264.551453,200.986511 269.396851,207.349152 278.840240,208.774170 
	C289.540741,210.388916 298.556793,207.233032 305.253967,198.407349 
	C306.275024,197.061752 307.306213,195.723877 309.116211,193.358551 
	C309.116211,199.079193 309.116211,203.465698 309.116211,207.699020 
	C315.782776,207.699020 322.014160,207.699020 328.552094,207.699020 
	C328.552094,196.761658 328.552094,186.130966 328.552155,174.500244 
M854.162903,147.879562 
	C851.522827,164.334061 856.996765,172.095078 873.434082,174.542130 
	C879.510071,175.446655 885.714844,175.451324 891.843994,176.041962 
	C898.460754,176.679611 901.829773,179.299316 901.969604,183.598724 
	C902.133057,188.624954 898.897766,192.025818 892.569031,193.480164 
	C883.160461,195.642258 876.067871,192.599396 870.129150,183.688843 
	C863.930786,184.667648 857.621887,185.663910 851.200928,186.677856 
	C853.145813,195.831039 858.475403,201.493683 866.220764,204.744980 
	C879.366333,210.263107 892.820068,210.472534 906.136658,205.425629 
	C917.724792,201.033813 923.147339,191.597076 921.404114,179.901169 
	C919.831909,169.352798 913.169373,164.041214 900.141968,162.940964 
	C893.678955,162.395096 887.200928,161.977112 880.760376,161.234543 
	C876.909363,160.790527 873.474182,159.173431 873.148071,154.691483 
	C872.797791,149.878082 875.532959,146.940094 879.918579,145.397842 
	C889.123962,142.160614 897.510376,145.194138 902.541260,153.753830 
	C908.496765,152.461777 914.532166,151.152390 920.618103,149.832031 
	C918.294739,142.628860 915.044250,138.653473 908.809875,135.764297 
	C895.443726,129.570145 881.718323,129.679138 867.958740,134.159653 
	C861.505859,136.260880 856.683044,140.463196 854.162903,147.879562 
M812.394470,179.480194 
	C812.574524,184.465179 812.526733,189.471466 812.990173,194.429962 
	C813.624817,201.219406 816.920776,205.305038 823.564209,206.580612 
	C829.491211,207.718613 835.611023,207.852768 841.672119,208.432434 
	C841.672119,201.967499 841.672119,196.440567 841.672119,190.699020 
	C839.510864,190.699020 837.483765,191.194168 835.917114,190.557068 
	C834.409058,189.943802 832.323730,188.180496 832.298279,186.886948 
	C832.034363,173.468338 832.135925,160.042542 832.135925,146.092758 
	C836.485962,146.092758 840.383362,146.092758 844.229492,146.092758 
	C844.229492,140.824631 844.229492,136.099655 844.229492,131.068573 
	C840.077454,131.068573 836.299866,131.068573 831.951904,131.068573 
	C831.951904,124.272064 831.951904,117.779419 831.951904,110.956871 
	C825.019348,113.126961 818.717346,115.099648 812.236267,117.128403 
	C812.236267,121.903221 812.236267,126.339851 812.236267,131.271439 
	C808.046326,131.271439 804.145081,131.271439 800.296021,131.271439 
	C800.296021,136.527756 800.296021,141.273376 800.296021,146.339294 
	C804.364868,146.339294 808.141602,146.339294 812.394470,146.339294 
	C812.394470,157.268158 812.394470,167.877151 812.394470,179.480194 
M253.041000,131.805740 
	C241.550385,129.776230 233.702271,135.342880 226.983490,145.629807 
	C226.983490,140.214478 226.983490,136.311722 226.983490,132.418121 
	C220.359497,132.418121 214.144302,132.418121 207.966583,132.418121 
	C207.966583,157.763992 207.966583,182.797424 207.966583,207.662689 
	C214.593277,207.662689 220.844543,207.662689 227.166779,207.662689 
	C227.166779,201.326584 227.060684,195.327118 227.196594,189.333145 
	C227.332397,183.344086 227.447128,177.334595 228.033554,171.379608 
	C229.539673,156.085587 235.775146,149.949524 251.012711,148.276184 
	C251.632629,148.208099 252.239624,148.022446 253.088318,147.841248 
	C253.088318,142.716446 253.088318,137.734177 253.041000,131.805740 
z"/>
<path fill="#020202" opacity="1.000000" stroke="none" 
	d="
M617.871826,152.398605 
	C630.291931,157.057724 635.023987,166.715942 632.762695,182.238617 
	C630.894653,195.061447 623.856201,202.867813 611.062744,205.892334 
	C607.030701,206.845551 602.858276,207.655609 598.739319,207.710022 
	C582.917847,207.918991 567.091919,207.794662 550.931763,207.794662 
	C550.931763,172.602234 550.931763,137.393875 550.931763,101.340996 
	C567.875427,101.913422 584.748657,101.590256 601.416870,103.284477 
	C620.063660,105.179810 629.634277,119.185616 626.062927,136.652557 
	C624.725159,143.195190 620.792358,147.866333 614.918640,151.599518 
	C616.253601,151.942520 616.896606,152.107712 617.871826,152.398605 
M613.675110,173.127319 
	C612.775574,167.879074 609.794067,164.344070 604.715393,162.832718 
	C593.348938,159.450195 581.781189,161.591385 570.374329,160.932236 
	C570.374329,171.376572 570.374329,180.970001 570.374329,190.190765 
	C580.674683,190.190765 590.817200,190.905319 600.809692,189.987228 
	C610.553833,189.091980 614.050049,183.887634 613.675110,173.127319 
M570.149719,139.289322 
	C570.149719,140.908279 570.149719,142.527237 570.149719,144.062912 
	C579.026123,144.062912 587.445374,144.175461 595.857605,143.982956 
	C597.934631,143.935440 600.090820,143.126648 602.033752,142.267746 
	C606.981628,140.080475 609.271545,135.718597 608.992004,129.653076 
	C608.744507,124.282074 605.892578,120.457916 600.785034,119.836525 
	C590.708191,118.610573 580.529724,118.220779 570.149719,117.467514 
	C570.149719,125.386185 570.149719,131.861618 570.149719,139.289322 
z"/>
<path fill="#040404" opacity="1.000000" stroke="none" 
	d="
M82.334450,190.688324 
	C94.738564,186.986557 101.484489,179.153671 102.793945,166.984436 
	C95.641800,166.984436 88.519127,166.984436 80.946106,166.984436 
	C81.467476,161.937088 81.952492,157.241714 82.458000,152.347900 
	C95.370422,152.347900 107.951653,152.347900 120.790237,152.347900 
	C120.790237,170.753799 120.790237,189.025284 120.790237,207.651672 
	C115.265320,207.651672 109.547356,207.651672 103.250946,207.651672 
	C103.250946,203.158707 103.250946,198.631241 103.250946,193.398865 
	C88.316269,211.452026 69.770157,211.879395 50.537125,205.829819 
	C31.165154,199.736572 21.231258,184.805466 19.322451,165.263840 
	C18.354595,155.355331 18.953621,144.816849 21.302809,135.161331 
	C26.073469,115.553276 41.582466,103.200974 61.695713,101.192123 
	C73.986420,99.964561 85.971931,101.465668 97.190147,107.049500 
	C109.331116,113.092628 117.442276,123.656487 119.850037,136.628922 
	C113.835526,138.271927 107.795387,139.921921 101.691841,141.589249 
	C100.431885,138.550415 99.427605,135.753967 98.139587,133.094925 
	C94.847420,126.298462 89.629219,121.261887 82.241058,119.817261 
	C75.808937,118.559593 68.927277,117.618546 62.536133,118.546913 
	C49.281513,120.472252 42.147369,129.625748 39.341587,142.206940 
	C37.209278,151.768250 37.421844,161.417297 40.052052,170.903809 
	C43.609417,183.734314 52.786808,191.275940 66.043228,191.800735 
	C71.321472,192.009674 76.640900,191.178360 82.334450,190.688324 
z"/>
<path fill="#030303" opacity="1.000000" stroke="none" 
	d="
M713.690002,154.433929 
	C714.883789,161.615509 715.925232,168.434494 717.057312,175.846603 
	C697.402771,175.846603 679.006958,175.846603 660.604614,175.846603 
	C660.782043,184.348572 665.216614,190.397339 672.490417,192.464432 
	C682.345947,195.265213 691.794312,191.123550 699.140686,180.406921 
	C703.965881,182.388718 708.924133,184.425171 713.877808,186.459732 
	C707.613770,202.947601 690.011414,211.577606 670.129150,208.175613 
	C652.021057,205.077209 640.408936,191.189255 639.948059,172.079483 
	C639.442322,151.112091 649.858643,136.410202 668.155273,132.267197 
	C687.726013,127.835693 705.884033,136.559784 713.690002,154.433929 
M672.514893,162.026672 
	C680.062866,162.026672 687.610779,162.026672 695.262878,162.026672 
	C693.354614,151.889679 686.132263,146.364624 676.274963,146.979080 
	C668.153015,147.485367 661.663635,153.816147 661.054810,162.026672 
	C664.552979,162.026672 668.036621,162.026672 672.514893,162.026672 
z"/>
<path fill="#050505" opacity="1.000000" stroke="none" 
	d="
M751.085876,209.080872 
	C747.015686,209.024124 743.280396,209.401367 739.732239,208.753754 
	C730.112488,206.997971 724.066223,199.935226 723.182007,190.099457 
	C722.224670,179.449951 726.641541,171.120728 736.288635,168.003372 
	C743.006165,165.832657 750.241638,165.228989 757.269714,164.070801 
	C760.547424,163.530685 763.918884,163.534286 767.180603,162.929214 
	C770.579163,162.298798 774.363708,161.772980 774.876709,157.211334 
	C775.363037,152.886948 772.545410,148.732895 768.215454,147.127731 
	C757.984924,143.335159 748.807861,147.862503 744.400208,159.198334 
	C738.512756,157.913345 732.558350,156.613739 726.252319,155.237396 
	C727.867310,144.197144 734.680420,137.950394 744.279297,134.558716 
	C755.268860,130.675659 766.466492,130.596619 777.508911,134.696045 
	C787.331665,138.342682 793.526672,145.529465 793.939697,155.852463 
	C794.623962,172.955276 794.125793,190.105392 794.125793,207.622803 
	C788.112366,207.622803 781.751465,207.622803 774.986694,207.622803 
	C774.986694,204.287659 774.986694,200.889999 774.986694,196.529892 
	C767.940002,203.451370 760.440308,207.685272 751.085876,209.080872 
M770.514343,188.867157 
	C773.751587,183.308792 775.069397,177.331436 774.818970,171.077957 
	C770.561829,171.855225 766.645569,172.515930 762.753174,173.295883 
	C758.687866,174.110504 754.520935,174.674347 750.622375,176.004395 
	C744.697693,178.025635 741.817749,183.803558 743.037170,190.044724 
	C743.993103,194.937103 748.608215,198.159332 754.698547,198.142075 
	C761.438293,198.122986 766.353271,194.824249 770.514343,188.867157 
z"/>
<path fill="#040404" opacity="1.000000" stroke="none" 
	d="
M199.065872,201.922607 
	C199.065872,204.064606 199.065872,205.716766 199.065872,207.687164 
	C192.550705,207.687164 186.180771,207.687164 179.463531,207.687164 
	C179.463531,204.293274 179.463531,201.014359 179.463531,196.732864 
	C177.757294,198.197159 176.752075,199.097092 175.708282,199.949783 
	C165.860748,207.994537 154.799469,211.551987 142.260895,208.138123 
	C132.989288,205.613739 128.202164,198.916565 127.744423,189.025803 
	C127.267456,178.719528 131.294098,171.105423 140.386017,168.140610 
	C147.247803,165.903046 154.643494,165.264496 161.827377,164.069595 
	C165.265793,163.497696 168.813324,163.528839 172.220505,162.838242 
	C175.221725,162.229935 178.819321,161.772858 179.190018,157.648682 
	C179.557587,153.559341 178.224472,150.121521 174.438354,147.961044 
	C165.514343,142.868683 153.173248,147.469513 149.877716,157.121536 
	C149.669952,157.730072 149.362228,158.304459 148.958176,159.217499 
	C142.941681,157.894760 137.007965,156.590210 130.815323,155.228745 
	C131.955002,145.899261 137.199188,139.947540 144.850311,136.241943 
	C155.919495,130.880920 167.626678,130.276382 179.342987,133.822922 
	C192.263443,137.733948 198.783249,146.503174 198.979935,159.989471 
	C199.181351,173.801392 199.051010,187.618149 199.065872,201.922607 
M148.152924,192.051666 
	C153.245056,199.379044 162.700424,200.402740 170.230133,194.213745 
	C177.503799,188.235199 179.371887,180.088654 179.197342,171.122131 
	C171.751312,172.490845 164.552277,173.475723 157.532104,175.192154 
	C149.179733,177.234329 146.133514,182.768784 148.152924,192.051666 
z"/>
<path fill="#050505" opacity="1.000000" stroke="none" 
	d="
M328.552124,175.000244 
	C328.552094,186.130966 328.552094,196.761658 328.552094,207.699020 
	C322.014160,207.699020 315.782776,207.699020 309.116211,207.699020 
	C309.116211,203.465698 309.116211,199.079193 309.116211,193.358551 
	C307.306213,195.723877 306.275024,197.061752 305.253967,198.407349 
	C298.556793,207.233032 289.540741,210.388916 278.840240,208.774170 
	C269.396851,207.349152 264.551453,200.986511 262.428528,192.198608 
	C261.767639,189.462891 261.179291,186.626678 261.160400,183.832413 
	C261.044861,166.735382 261.102570,149.637161 261.102570,132.320602 
	C267.548615,132.320602 273.782471,132.320602 280.492432,132.320602 
	C280.492432,141.316071 280.434204,150.107071 280.508789,158.896973 
	C280.583618,167.716064 280.632660,176.540771 281.007751,185.349609 
	C281.191956,189.674927 281.771698,194.370056 286.769257,195.991257 
	C292.054169,197.705673 296.640717,195.698349 300.265015,191.783478 
	C305.483490,186.146683 307.499725,179.024551 307.935394,171.665451 
	C308.613190,160.216019 308.616943,148.726547 308.895050,137.253769 
	C308.931213,135.761612 308.900024,134.267792 308.900024,132.437424 
	C315.301575,132.437424 321.548004,132.437424 328.552155,132.437424 
	C328.552155,146.359024 328.552155,160.429626 328.552124,175.000244 
z"/>
<path fill="#040404" opacity="1.000000" stroke="none" 
	d="
M854.284180,147.502777 
	C856.683044,140.463196 861.505859,136.260880 867.958740,134.159653 
	C881.718323,129.679138 895.443726,129.570145 908.809875,135.764297 
	C915.044250,138.653473 918.294739,142.628860 920.618103,149.832031 
	C914.532166,151.152390 908.496765,152.461777 902.541260,153.753830 
	C897.510376,145.194138 889.123962,142.160614 879.918579,145.397842 
	C875.532959,146.940094 872.797791,149.878082 873.148071,154.691483 
	C873.474182,159.173431 876.909363,160.790527 880.760376,161.234543 
	C887.200928,161.977112 893.678955,162.395096 900.141968,162.940964 
	C913.169373,164.041214 919.831909,169.352798 921.404114,179.901169 
	C923.147339,191.597076 917.724792,201.033813 906.136658,205.425629 
	C892.820068,210.472534 879.366333,210.263107 866.220764,204.744980 
	C858.475403,201.493683 853.145813,195.831039 851.200928,186.677856 
	C857.621887,185.663910 863.930786,184.667648 870.129150,183.688843 
	C876.067871,192.599396 883.160461,195.642258 892.569031,193.480164 
	C898.897766,192.025818 902.133057,188.624954 901.969604,183.598724 
	C901.829773,179.299316 898.460754,176.679611 891.843994,176.041962 
	C885.714844,175.451324 879.510071,175.446655 873.434082,174.542130 
	C856.996765,172.095078 851.522827,164.334061 854.284180,147.502777 
z"/>
<path fill="#050505" opacity="1.000000" stroke="none" 
	d="
M812.394470,178.983185 
	C812.394470,167.877151 812.394470,157.268158 812.394470,146.339294 
	C808.141602,146.339294 804.364868,146.339294 800.296021,146.339294 
	C800.296021,141.273376 800.296021,136.527756 800.296021,131.271439 
	C804.145081,131.271439 808.046326,131.271439 812.236267,131.271439 
	C812.236267,126.339851 812.236267,121.903221 812.236267,117.128403 
	C818.717346,115.099648 825.019348,113.126961 831.951904,110.956871 
	C831.951904,117.779419 831.951904,124.272064 831.951904,131.068573 
	C836.299866,131.068573 840.077454,131.068573 844.229492,131.068573 
	C844.229492,136.099655 844.229492,140.824631 844.229492,146.092758 
	C840.383362,146.092758 836.485962,146.092758 832.135925,146.092758 
	C832.135925,160.042542 832.034363,173.468338 832.298279,186.886948 
	C832.323730,188.180496 834.409058,189.943802 835.917114,190.557068 
	C837.483765,191.194168 839.510864,190.699020 841.672119,190.699020 
	C841.672119,196.440567 841.672119,201.967499 841.672119,208.432434 
	C835.611023,207.852768 829.491211,207.718613 823.564209,206.580612 
	C816.920776,205.305038 813.624817,201.219406 812.990173,194.429962 
	C812.526733,189.471466 812.574524,184.465179 812.394470,178.983185 
z"/>
<path fill="#020202" opacity="1.000000" stroke="none" 
	d="
M253.064667,132.278839 
	C253.088318,137.734177 253.088318,142.716446 253.088318,147.841248 
	C252.239624,148.022446 251.632629,148.208099 251.012711,148.276184 
	C235.775146,149.949524 229.539673,156.085587 228.033554,171.379608 
	C227.447128,177.334595 227.332397,183.344086 227.196594,189.333145 
	C227.060684,195.327118 227.166779,201.326584 227.166779,207.662689 
	C220.844543,207.662689 214.593277,207.662689 207.966583,207.662689 
	C207.966583,182.797424 207.966583,157.763992 207.966583,132.418121 
	C214.144302,132.418121 220.359497,132.418121 226.983490,132.418121 
	C226.983490,136.311722 226.983490,140.214478 226.983490,145.629807 
	C233.702271,135.342880 241.550385,129.776230 253.064667,132.278839 
z"/>
<path fill="#EE290B" opacity="1.000000" stroke="none" 
	d="
M490.137848,154.314316 
	C491.173370,151.655746 492.208893,148.997162 493.567383,145.509384 
	C502.189697,166.830978 509.482605,187.116455 490.426453,205.876282 
	C490.143951,201.485886 487.306641,197.285858 490.396973,193.274353 
	C495.495850,186.655624 494.554596,179.275848 492.981903,171.898987 
	C492.129883,167.902405 491.571564,164.115280 494.151794,160.483109 
	C494.518097,159.967438 494.007935,158.829163 493.933350,157.576538 
	C493.963257,155.416550 493.963257,153.659073 493.963257,151.110458 
	C492.553192,153.004410 491.798645,154.017914 490.827698,154.839264 
	C490.453522,154.536179 490.295685,154.425247 490.137848,154.314316 
z"/>
<path fill="#F93C0E" opacity="1.000000" stroke="none" 
	d="
M493.903442,157.979065 
	C494.007935,158.829163 494.518097,159.967438 494.151794,160.483109 
	C491.571564,164.115280 492.129883,167.902405 492.981903,171.898987 
	C494.554596,179.275848 495.495850,186.655624 490.396973,193.274353 
	C487.306641,197.285858 490.143951,201.485886 490.118378,206.034515 
	C488.459900,208.366135 486.758270,210.258224 484.426270,212.000610 
	C483.194794,210.898819 482.593658,209.946716 482.008057,208.664032 
	C482.090637,207.897278 482.157684,207.461105 482.470581,206.806915 
	C484.189331,203.690399 485.662170,200.791916 487.476074,197.222244 
	C484.769806,197.613144 483.339630,197.819717 481.888428,197.831268 
	C481.867401,197.636261 481.837677,197.245102 481.887329,196.848160 
	C482.954895,194.101990 484.400146,191.842178 484.913818,189.387436 
	C486.751709,180.604599 488.273834,171.755692 489.961334,162.600967 
	C491.306000,160.839813 492.604736,159.409439 493.903442,157.979065 
z"/>
<path fill="#EE290B" opacity="1.000000" stroke="none" 
	d="
M474.256287,113.824921 
	C477.764832,117.820183 479.156799,122.571754 479.092682,127.782715 
	C479.009186,134.567978 478.739471,141.351517 478.703552,148.136627 
	C478.665863,155.259552 483.109253,157.882690 489.822754,154.478851 
	C490.295685,154.425247 490.453522,154.536179 490.778564,155.212738 
	C486.816345,161.260147 478.292297,160.453674 472.924744,153.746521 
	C472.283997,152.937103 471.659180,152.456116 471.025299,151.734695 
	C471.016235,151.494278 470.998779,151.013428 471.012085,150.685181 
	C471.035583,149.919159 471.045807,149.481400 471.394928,148.974686 
	C472.140442,147.928604 472.546997,146.951492 472.962830,145.577423 
	C472.981384,144.121765 472.990692,143.063034 473.275757,141.756012 
	C473.341461,139.652084 473.131348,137.796463 472.929413,135.575348 
	C472.929230,134.479156 472.920868,133.748444 473.202942,132.827423 
	C477.113190,129.501633 477.165344,125.742722 475.757294,121.495651 
	C474.944031,119.042488 474.736481,116.388512 474.256287,113.824921 
z"/>
<path fill="#EE290B" opacity="1.000000" stroke="none" 
	d="
M388.997894,203.030914 
	C381.541626,193.514069 377.349060,183.286423 380.505066,170.812668 
	C382.906158,161.322601 386.451752,152.595245 394.156433,145.329300 
	C394.156433,148.976761 394.156433,152.624222 393.881592,156.657166 
	C393.388092,157.060364 393.169403,157.078079 392.846924,156.758270 
	C392.348907,155.184570 391.954681,153.948364 391.117004,151.321732 
	C390.533997,154.163574 390.249695,155.549454 389.631927,157.012543 
	C388.857208,158.052292 388.415955,159.014832 387.620605,160.027527 
	C386.161316,161.432281 384.516541,162.627396 384.059387,164.173599 
	C382.995605,167.771713 382.513000,171.540756 381.778381,175.237259 
	C380.836029,179.979172 383.416473,184.864990 388.110687,187.240845 
	C388.503296,187.986633 388.784027,188.474152 389.055969,189.362518 
	C389.724365,194.188461 392.522278,198.621414 388.997894,203.030914 
z"/>
<path fill="#FCFABF" opacity="1.000000" stroke="none" 
	d="
M449.227203,235.799591 
	C443.037140,236.137436 436.847046,236.475281 430.680725,236.464264 
	C431.700775,235.789429 432.697113,235.463455 434.011597,235.112335 
	C435.572388,234.717361 436.815063,234.347519 438.398804,234.136261 
	C442.899780,235.958740 445.851746,234.576324 447.674988,230.634033 
	C449.137115,227.472580 450.715820,224.334793 451.824554,221.045517 
	C456.119507,208.304077 449.102051,199.929337 436.136536,201.654022 
	C438.483734,193.807327 440.485626,193.205093 446.729523,198.148407 
	C447.246063,198.557388 447.879883,198.817459 448.400360,199.222366 
	C453.318298,203.048096 457.110931,207.448380 456.008453,214.314804 
	C455.330505,218.537048 454.662964,222.760986 453.848022,227.289612 
	C452.212646,230.329895 450.719940,233.064743 449.227203,235.799591 
z"/>
<path fill="#FFE21B" opacity="1.000000" stroke="none" 
	d="
M449.539093,235.742432 
	C450.719940,233.064743 452.212646,230.329895 454.144348,227.158905 
	C455.740051,225.171890 456.896790,223.621033 458.354889,221.907257 
	C459.811310,219.540039 460.966339,217.335739 462.467041,215.046814 
	C464.179688,210.989319 465.546661,207.016464 467.054382,202.762878 
	C467.785980,201.643677 468.376831,200.805161 469.243103,200.099365 
	C470.339355,200.829041 471.160095,201.425995 471.983521,202.437225 
	C470.978821,208.890625 469.971405,214.929749 468.773651,221.238068 
	C463.740814,225.769287 458.898285,230.031342 454.055786,234.293381 
	C452.654175,234.757355 451.252594,235.221329 449.539093,235.742432 
z"/>
<path fill="#F93C0E" opacity="1.000000" stroke="none" 
	d="
M474.245544,113.849625 
	C474.736481,116.388512 474.944031,119.042488 475.757294,121.495651 
	C477.165344,125.742722 477.113190,129.501633 472.946381,132.591156 
	C471.616852,130.024521 470.834259,127.503815 470.328308,124.706009 
	C471.921722,118.709259 470.042328,114.009308 465.960022,109.656166 
	C459.616730,103.536018 453.314606,97.758751 446.863831,91.686920 
	C445.780945,89.936722 444.846771,88.481087 444.283936,87.047058 
	C445.856781,87.315575 447.058258,87.562500 448.259735,87.809418 
	C448.259735,87.809418 448.114136,87.863670 448.208832,88.079620 
	C448.842224,88.540588 449.380920,88.785606 449.919617,89.030617 
	C450.223541,89.158981 450.527435,89.287346 450.955750,90.015739 
	C452.738892,91.733574 454.397644,92.851379 456.056427,93.969193 
	C456.056427,93.969193 456.004852,94.001396 456.044220,94.329895 
	C457.703491,95.780396 459.323395,96.902405 460.943298,98.024429 
	C462.232880,99.108269 463.522491,100.192108 464.940796,101.903419 
	C465.465515,102.989685 465.861542,103.448479 466.257599,103.907272 
	C466.257599,103.907265 466.091522,103.929115 466.184448,104.121132 
	C466.595856,104.505882 466.914307,104.698608 467.232788,104.891342 
	C467.232788,104.891342 467.087097,104.912628 467.179688,105.113579 
	C467.585388,105.511993 467.898468,105.709457 468.211548,105.906914 
	C468.211548,105.906914 468.074646,105.924866 468.170502,106.125885 
	C468.576569,106.522797 468.886810,106.718697 469.197021,106.914597 
	C469.197021,106.914597 469.068542,106.930901 469.164551,107.132980 
	C469.566711,107.531319 469.872833,107.727570 470.178986,107.923828 
	C470.178986,107.923836 470.086365,107.925560 470.065002,108.263611 
	C471.443634,110.342735 472.843567,112.083809 474.243530,113.824883 
	C474.243530,113.824875 474.234772,113.874336 474.245544,113.849625 
z"/>
<path fill="#FFE21B" opacity="1.000000" stroke="none" 
	d="
M433.693451,235.137482 
	C432.697113,235.463455 431.700775,235.789429 430.325500,236.248718 
	C429.526276,236.272095 429.105988,236.162140 428.313110,235.581787 
	C423.973999,231.728775 420.007446,228.346176 415.901428,224.696655 
	C415.162018,223.630737 414.562073,222.831711 413.981689,221.574249 
	C414.002472,219.144577 413.890625,217.165283 414.029877,215.203827 
	C414.271942,211.794098 414.669098,208.395401 415.294983,204.982574 
	C415.784546,204.963730 415.980286,204.954361 416.145935,205.340057 
	C417.380249,208.859497 418.644592,211.983871 419.961243,215.440979 
	C420.954590,216.924866 421.895660,218.076035 422.920471,219.559616 
	C426.567291,224.973846 430.130371,230.055664 433.693451,235.137482 
z"/>
<path fill="#FD8406" opacity="1.000000" stroke="none" 
	d="
M413.962097,222.032684 
	C414.562073,222.831711 415.162018,223.630737 415.882446,225.073120 
	C417.347473,228.532776 418.692047,231.349045 420.036652,234.165314 
	C415.121338,232.161179 410.205994,230.157043 405.099976,227.464355 
	C402.886108,222.283112 401.803894,217.735641 404.383972,213.122345 
	C405.772034,214.169464 406.882935,215.085342 408.136902,216.296906 
	C410.174011,218.405960 412.068054,220.219330 413.962097,222.032684 
z"/>
<path fill="#EE290B" opacity="1.000000" stroke="none" 
	d="
M419.630432,122.504166 
	C420.667236,118.225594 421.122803,114.165771 427.671967,114.515892 
	C432.426239,114.770050 435.431702,110.355057 435.697937,105.791458 
	C436.125153,98.469376 435.631805,91.091270 435.459961,83.738426 
	C435.424133,82.204758 435.094452,80.677956 434.737946,77.870125 
	C436.872192,79.524788 437.951355,80.361450 438.886475,81.581116 
	C438.512268,81.994392 438.282104,82.024666 437.818604,82.140060 
	C437.293365,82.420074 437.114044,82.689812 437.148743,83.306625 
	C437.560699,84.069695 437.871185,84.560539 438.152100,85.427010 
	C438.418915,87.523979 438.715332,89.245323 439.003479,91.432068 
	C439.387329,101.261703 438.326935,110.230812 431.595825,117.802017 
	C429.549683,117.597092 427.868713,117.346901 425.816559,117.219940 
	C424.965790,119.569473 424.486237,121.795776 423.909882,124.280731 
	C423.559143,125.028015 423.305145,125.516655 422.825684,126.117455 
	C422.018555,126.455902 421.436859,126.682198 420.696930,126.559357 
	C420.235931,124.974876 419.933197,123.739525 419.630432,122.504166 
z"/>
<path fill="#FF582E" opacity="1.000000" stroke="none" 
	d="
M419.365601,122.729080 
	C419.933197,123.739525 420.235931,124.974876 420.439819,126.785339 
	C415.937286,134.809952 412.257416,142.400696 412.846466,151.493729 
	C413.342926,159.157532 411.967133,166.075668 402.461670,168.022339 
	C397.190643,165.925842 393.942474,162.461700 392.950714,157.095779 
	C393.169403,157.078079 393.388092,157.060364 393.933350,157.000427 
	C394.987976,158.000763 395.757843,159.016891 396.436371,160.090744 
	C398.547211,163.431396 401.363861,165.544464 405.491455,164.769897 
	C409.757263,163.969376 410.861877,160.533127 410.908844,156.914383 
	C411.064178,144.948410 413.872253,133.671494 419.365601,122.729080 
z"/>
<path fill="#F93C0E" opacity="1.000000" stroke="none" 
	d="
M389.077820,203.359039 
	C392.522278,198.621414 389.724365,194.188461 389.465027,189.371429 
	C391.256042,188.980011 392.629150,188.980545 394.157410,189.321457 
	C395.900879,195.096329 397.489227,200.530823 399.053864,206.327148 
	C398.004150,208.496689 396.978149,210.304382 395.952118,212.112091 
	C393.687347,209.303787 391.422546,206.495468 389.077820,203.359039 
z"/>
<path fill="#FF6341" opacity="1.000000" stroke="none" 
	d="
M391.863129,123.963547 
	C393.846558,120.989670 395.830017,118.015800 397.764832,115.114868 
	C400.920105,120.927208 398.312500,131.917206 389.653168,139.034088 
	C389.318512,135.604172 389.562286,132.309814 390.055725,129.053253 
	C390.284546,127.542915 390.999207,126.106194 391.493622,124.636101 
	C391.493622,124.636101 391.567535,124.587227 391.768188,124.651505 
	C392.110809,124.674927 392.252777,124.634071 392.394775,124.593224 
	C392.217560,124.383339 392.040344,124.173447 391.863129,123.963547 
z"/>
<path fill="#FF4C13" opacity="1.000000" stroke="none" 
	d="
M481.992493,208.994629 
	C482.593658,209.946716 483.194794,210.898819 484.098633,212.023956 
	C484.091766,213.600204 483.782196,215.003387 483.377350,216.838348 
	C485.471924,216.838348 487.280151,216.838348 489.088379,216.838348 
	C489.268036,217.257111 489.447723,217.675858 489.627380,218.094620 
	C484.663300,221.009567 479.699249,223.924515 474.432068,226.530243 
	C475.409637,222.138153 476.690247,218.055283 478.034363,213.637161 
	C479.396088,211.866135 480.694275,210.430389 481.992493,208.994629 
z"/>
<path fill="#FF4C13" opacity="1.000000" stroke="none" 
	d="
M395.993591,212.404572 
	C396.978149,210.304382 398.004150,208.496689 399.333374,206.483429 
	C400.704742,207.236572 401.772949,208.195282 402.901642,209.487488 
	C403.343719,210.877686 403.725281,211.934387 404.106842,212.991104 
	C401.803894,217.735641 402.886108,222.283112 404.906921,227.209198 
	C402.321411,226.084641 399.738281,224.526718 397.119751,222.393524 
	C397.263763,220.663132 397.604401,219.504227 397.577484,218.353928 
	C397.550232,217.187286 397.159912,216.029160 396.928589,214.867294 
	C396.630737,214.143875 396.332886,213.420456 395.993591,212.404572 
z"/>
<path fill="#FD8406" opacity="1.000000" stroke="none" 
	d="
M477.970856,213.972443 
	C476.690247,218.055283 475.409637,222.138153 474.080444,226.573883 
	C471.587494,228.115189 469.143127,229.303619 466.378021,230.158325 
	C467.377899,226.886734 468.698517,223.948853 470.175354,220.714874 
	C471.907776,218.636612 473.483978,216.854446 475.371643,215.029434 
	C476.445679,214.648529 477.208252,214.310486 477.970856,213.972443 
z"/>
<path fill="#FDAF0E" opacity="1.000000" stroke="none" 
	d="
M470.019165,221.010986 
	C468.698517,223.948853 467.377899,226.886734 466.039185,230.156570 
	C462.305725,231.752594 458.590363,233.016663 454.465393,234.287048 
	C458.898285,230.031342 463.740814,225.769287 469.037598,221.250519 
	C469.667633,220.999512 469.843414,221.005249 470.019165,221.010986 
z"/>
<path fill="#FF582E" opacity="1.000000" stroke="none" 
	d="
M396.560730,215.044128 
	C397.159912,216.029160 397.550232,217.187286 397.577484,218.353928 
	C397.604401,219.504227 397.263763,220.663132 396.923279,222.124542 
	C393.145386,219.389267 389.528595,216.347717 385.911804,213.306168 
	C386.146698,213.067108 386.381622,212.828064 386.616516,212.589005 
	C389.808655,213.466324 393.000763,214.343628 396.560730,215.044128 
z"/>
<path fill="#FDAF0E" opacity="1.000000" stroke="none" 
	d="
M420.353271,234.355164 
	C418.692047,231.349045 417.347473,228.532776 416.021912,225.340027 
	C420.007446,228.346176 423.973999,231.728775 428.022522,235.435059 
	C427.915100,235.816818 427.725708,235.874924 427.046082,235.783936 
	C426.006775,235.674911 425.457733,235.714981 424.908691,235.755035 
	C423.495758,235.351700 422.082825,234.948364 420.353271,234.355164 
z"/>
<path fill="#FF582E" opacity="1.000000" stroke="none" 
	d="
M391.193726,124.764938 
	C390.999207,126.106194 390.284546,127.542915 390.055725,129.053253 
	C389.562286,132.309814 389.318512,135.604172 389.344208,139.137466 
	C389.394714,139.848526 389.073578,140.305191 388.161926,140.889587 
	C387.341339,140.998352 387.111237,140.979340 386.881134,140.960342 
	C385.945801,135.037155 386.466248,129.477554 391.193726,124.764938 
z"/>
<path fill="#EE290B" opacity="1.000000" stroke="none" 
	d="
M474.197754,113.481308 
	C472.843567,112.083809 471.443634,110.342735 470.081635,108.220375 
	C471.463745,109.605301 472.807892,111.371513 474.197754,113.481308 
z"/>
<path fill="#EE290B" opacity="1.000000" stroke="none" 
	d="
M448.113312,87.506592 
	C447.058258,87.562500 445.856781,87.315575 444.005127,86.894951 
	C442.909546,85.814255 442.464172,84.907265 442.056061,83.958084 
	C442.093323,83.915886 442.152039,83.819839 442.152039,83.819847 
	C444.090302,84.947823 446.028595,86.075790 448.113312,87.506592 
z"/>
<path fill="#EE290B" opacity="1.000000" stroke="none" 
	d="
M460.791901,97.738365 
	C459.323395,96.902405 457.703491,95.780396 456.055420,94.301636 
	C457.564972,95.114037 459.102753,96.283173 460.791901,97.738365 
z"/>
<path fill="#EE290B" opacity="1.000000" stroke="none" 
	d="
M455.908539,93.675858 
	C454.397644,92.851379 452.738892,91.733574 451.053131,90.251656 
	C452.604309,91.052536 454.182465,92.217529 455.908539,93.675858 
z"/>
<path fill="#FF582E" opacity="1.000000" stroke="none" 
	d="
M438.051941,82.054939 
	C438.282104,82.024666 438.512268,81.994392 439.087036,81.914047 
	C439.431702,81.863983 439.746094,81.779037 439.859131,82.230896 
	C439.979614,83.143661 439.987030,83.604576 439.839020,84.288727 
	C439.182953,84.691780 438.682343,84.871582 438.181702,85.051384 
	C437.871185,84.560539 437.560699,84.069695 437.354553,83.185936 
	C437.721222,82.598946 437.918884,82.352921 438.051941,82.054939 
z"/>
<path fill="#FF6341" opacity="1.000000" stroke="none" 
	d="
M386.768188,141.137726 
	C387.111237,140.979340 387.341339,140.998352 387.917236,141.042389 
	C387.919098,141.477783 387.575134,141.888138 387.231201,142.298492 
	C387.039246,141.970703 386.847260,141.642899 386.768188,141.137726 
z"/>
<path fill="#FCFABF" opacity="1.000000" stroke="none" 
	d="
M425.000671,235.973450 
	C425.457733,235.714981 426.006775,235.674911 426.755646,235.846725 
	C426.334534,236.103012 425.713623,236.147430 425.000671,235.973450 
z"/>
<path fill="#F93C0E" opacity="1.000000" stroke="none" 
	d="
M439.994446,84.065483 
	C439.987030,83.604576 439.979614,83.143661 439.982605,82.337090 
	C440.644958,82.412025 441.296936,82.832619 442.050476,83.536530 
	C442.152039,83.819839 442.093323,83.915886 441.720154,83.996407 
	C440.896149,84.073112 440.445312,84.069298 439.994446,84.065483 
z"/>
<path fill="#EE290B" opacity="1.000000" stroke="none" 
	d="
M449.788818,88.765640 
	C449.380920,88.785606 448.842224,88.540588 448.208923,88.001938 
	C448.628906,87.972427 449.143433,88.236549 449.788818,88.765640 
z"/>
<path fill="#EE290B" opacity="1.000000" stroke="none" 
	d="
M466.203918,103.590973 
	C465.861542,103.448479 465.465515,102.989685 465.050385,102.203079 
	C465.404266,102.341743 465.777252,102.808212 466.203918,103.590973 
z"/>
<path fill="#EE290B" opacity="1.000000" stroke="none" 
	d="
M467.145508,104.617867 
	C466.914307,104.698608 466.595856,104.505882 466.191406,104.037659 
	C466.423004,103.956253 466.740631,104.150330 467.145508,104.617867 
z"/>
<path fill="#EE290B" opacity="1.000000" stroke="none" 
	d="
M468.125122,105.634857 
	C467.898468,105.709457 467.585388,105.511993 467.188293,105.040466 
	C467.415771,104.965202 467.727234,105.164009 468.125122,105.634857 
z"/>
<path fill="#EE290B" opacity="1.000000" stroke="none" 
	d="
M469.108398,106.645782 
	C468.886810,106.718697 468.576569,106.522797 468.178040,106.057274 
	C468.399750,105.984085 468.709778,106.180519 469.108398,106.645782 
z"/>
<path fill="#EE290B" opacity="1.000000" stroke="none" 
	d="
M470.097504,107.653526 
	C469.872833,107.727570 469.566711,107.531319 469.171600,107.068619 
	C469.393768,106.995857 469.704895,107.189537 470.097504,107.653526 
z"/>
<path fill="#FF582E" opacity="1.000000" stroke="none" 
	d="
M391.724915,124.062805 
	C392.040344,124.173447 392.217560,124.383339 392.394775,124.593224 
	C392.252777,124.634071 392.110809,124.674927 391.759277,124.608101 
	C391.549774,124.500412 391.586670,124.162064 391.724915,124.062805 
z"/>
<path fill="#FBFBFB" opacity="1.000000" stroke="none" 
	d="
M613.725586,173.535553 
	C614.050049,183.887634 610.553833,189.091980 600.809692,189.987228 
	C590.817200,190.905319 580.674683,190.190765 570.374329,190.190765 
	C570.374329,180.970001 570.374329,171.376572 570.374329,160.932236 
	C581.781189,161.591385 593.348938,159.450195 604.715393,162.832718 
	C609.794067,164.344070 612.775574,167.879074 613.725586,173.535553 
z"/>
<path fill="#F8F8F8" opacity="1.000000" stroke="none" 
	d="
M570.149719,138.813187 
	C570.149719,131.861618 570.149719,125.386185 570.149719,117.467514 
	C580.529724,118.220779 590.708191,118.610573 600.785034,119.836525 
	C605.892578,120.457916 608.744507,124.282074 608.992004,129.653076 
	C609.271545,135.718597 606.981628,140.080475 602.033752,142.267746 
	C600.090820,143.126648 597.934631,143.935440 595.857605,143.982956 
	C587.445374,144.175461 579.026123,144.062912 570.149719,144.062912 
	C570.149719,142.527237 570.149719,140.908279 570.149719,138.813187 
z"/>
<path fill="#FBFBFB" opacity="1.000000" stroke="none" 
	d="
M672.017578,162.026672 
	C668.036621,162.026672 664.552979,162.026672 661.054810,162.026672 
	C661.663635,153.816147 668.153015,147.485367 676.274963,146.979080 
	C686.132263,146.364624 693.354614,151.889679 695.262878,162.026672 
	C687.610779,162.026672 680.062866,162.026672 672.017578,162.026672 
z"/>
<path fill="#FBFBFB" opacity="1.000000" stroke="none" 
	d="
M770.313232,189.175110 
	C766.353271,194.824249 761.438293,198.122986 754.698547,198.142075 
	C748.608215,198.159332 743.993103,194.937103 743.037170,190.044724 
	C741.817749,183.803558 744.697693,178.025635 750.622375,176.004395 
	C754.520935,174.674347 758.687866,174.110504 762.753174,173.295883 
	C766.645569,172.515930 770.561829,171.855225 774.818970,171.077957 
	C775.069397,177.331436 773.751587,183.308792 770.313232,189.175110 
z"/>
<path fill="#FBFBFB" opacity="1.000000" stroke="none" 
	d="
M148.040894,191.679993 
	C146.133514,182.768784 149.179733,177.234329 157.532104,175.192154 
	C164.552277,173.475723 171.751312,172.490845 179.197342,171.122131 
	C179.371887,180.088654 177.503799,188.235199 170.230133,194.213745 
	C162.700424,200.402740 153.245056,199.379044 148.040894,191.679993 
z"/>
<path fill="#FF582E" opacity="1.000000" stroke="none" 
	d="
M470.051666,124.983116 
	C470.834259,127.503815 471.616852,130.024521 472.655975,132.781494 
	C472.920868,133.748444 472.929230,134.479156 472.700256,135.588043 
	C472.462891,135.966248 472.002808,135.987411 471.629517,136.034515 
	C468.412567,138.721664 466.610809,147.047516 468.432556,150.024658 
	C468.812317,150.645309 470.119171,150.698654 470.998779,151.013428 
	C470.998779,151.013428 471.016235,151.494278 471.047302,152.058563 
	C471.699158,153.106857 472.319916,153.590897 472.940704,154.074921 
	C478.292297,160.453674 486.816345,161.260147 490.994934,155.404907 
	C491.798645,154.017914 492.553192,153.004410 493.963257,151.110458 
	C493.963257,153.659073 493.963257,155.416550 493.933350,157.576538 
	C492.604736,159.409439 491.306000,160.839813 489.624939,162.656067 
	C486.809174,166.033249 484.375732,169.024536 481.639557,171.876083 
	C477.880005,172.500732 474.423157,173.265121 470.720947,174.020889 
	C470.475555,174.012283 469.985352,173.983215 469.990387,173.547729 
	C470.346893,170.565125 469.936554,167.507416 471.223541,165.587402 
	C473.292969,162.500122 472.511627,160.225159 470.435883,158.229782 
	C468.617096,156.481445 466.175018,155.381577 464.002167,153.527542 
	C463.666046,146.374039 463.335999,139.688278 463.362274,132.961395 
	C465.487579,130.279175 467.256561,127.638077 469.282043,124.993721 
	C469.709625,124.988007 469.880646,124.985558 470.051666,124.983116 
z"/>
<path fill="#FF4C13" opacity="1.000000" stroke="none" 
	d="
M481.942291,172.015839 
	C484.375732,169.024536 486.809174,166.033249 489.578979,162.986862 
	C488.273834,171.755692 486.751709,180.604599 484.913818,189.387436 
	C484.400146,191.842178 482.954895,194.101990 481.580658,196.780685 
	C480.476776,196.723648 479.729218,196.337143 478.986694,195.512543 
	C479.263245,192.450790 479.474548,189.819229 479.819153,187.205231 
	C480.487244,182.136887 481.230316,177.078400 481.942291,172.015839 
z"/>
<path fill="#FDAF0E" opacity="1.000000" stroke="none" 
	d="
M478.981659,195.950653 
	C479.729218,196.337143 480.476776,196.723648 481.531006,197.177628 
	C481.837677,197.245102 481.867401,197.636261 481.627502,198.089371 
	C482.001526,201.336914 478.208801,204.566208 482.224701,207.024933 
	C482.157684,207.461105 482.090637,207.897278 482.008057,208.664032 
	C480.694275,210.430389 479.396088,211.866135 478.034363,213.637177 
	C477.208252,214.310486 476.445679,214.648529 475.351318,214.559906 
	C476.011932,208.088394 477.004303,202.043579 478.242981,195.988373 
	C478.489288,195.977997 478.981659,195.950653 478.981659,195.950653 
z"/>
<path fill="#FD8406" opacity="1.000000" stroke="none" 
	d="
M482.470581,206.806915 
	C478.208801,204.566208 482.001526,201.336914 481.648560,198.284393 
	C483.339630,197.819717 484.769806,197.613144 487.476074,197.222244 
	C485.662170,200.791916 484.189331,203.690399 482.470581,206.806915 
z"/>
<path fill="#FF4C13" opacity="1.000000" stroke="none" 
	d="
M471.012085,150.685181 
	C470.119171,150.698654 468.812317,150.645309 468.432556,150.024658 
	C466.610809,147.047516 468.412567,138.721664 471.631927,136.440186 
	C472.338440,138.533936 472.669220,140.269119 473.000000,142.004303 
	C472.990692,143.063034 472.981384,144.121765 472.622681,145.642181 
	C471.867554,147.083786 471.461761,148.063705 471.055969,149.043640 
	C471.045807,149.481400 471.035583,149.919159 471.012085,150.685181 
z"/>
<path fill="#F93C0E" opacity="1.000000" stroke="none" 
	d="
M473.275757,141.756012 
	C472.669220,140.269119 472.338440,138.533936 472.005219,136.393097 
	C472.002808,135.987411 472.462891,135.966248 472.692078,135.953537 
	C473.131348,137.796463 473.341461,139.652084 473.275757,141.756012 
z"/>
<path fill="#F93C0E" opacity="1.000000" stroke="none" 
	d="
M471.394897,148.974686 
	C471.461761,148.063705 471.867554,147.083786 472.613464,146.039124 
	C472.546997,146.951492 472.140442,147.928604 471.394897,148.974686 
z"/>
<path fill="#F93C0E" opacity="1.000000" stroke="none" 
	d="
M472.924744,153.746521 
	C472.319916,153.590897 471.699158,153.106857 471.056366,152.298981 
	C471.659180,152.456116 472.283997,152.937103 472.924744,153.746521 
z"/>
<path fill="#FF7032" opacity="1.000000" stroke="none" 
	d="
M387.974701,159.977356 
	C388.415955,159.014832 388.857208,158.052292 389.683014,157.385864 
	C392.223816,161.468002 394.179901,165.388336 396.601105,168.996582 
	C398.461365,171.768890 400.887604,171.584473 403.426239,168.990692 
	C413.165802,171.220184 418.860992,166.700851 419.033630,157.140305 
	C419.100800,153.422516 419.661987,149.713638 420.257202,146.172546 
	C421.024963,147.251953 421.533722,148.159485 422.035980,149.493973 
	C421.342316,156.942963 420.655151,163.965012 419.829315,171.314819 
	C418.135193,174.764725 416.579681,177.886871 414.729126,181.158752 
	C413.275085,182.203583 412.116089,183.098679 410.516846,184.003998 
	C404.801758,184.559265 400.045532,183.768448 396.576538,179.159317 
	C396.071320,178.488022 394.897766,178.319733 394.022034,177.549469 
	C392.329529,172.780930 390.648468,168.381638 388.955750,163.635681 
	C388.620972,162.185150 388.297821,161.081253 387.974701,159.977356 
z"/>
<path fill="#FF4C13" opacity="1.000000" stroke="none" 
	d="
M388.967377,163.982346 
	C390.648468,168.381638 392.329529,172.780930 394.008911,178.016479 
	C394.005554,182.228836 394.003906,185.604950 394.002258,188.981079 
	C392.629150,188.980545 391.256042,188.980011 389.473846,188.970566 
	C388.784027,188.474152 388.503296,187.986633 388.114685,186.802689 
	C387.674133,180.027100 387.219604,173.950195 387.107361,167.866974 
	C387.083649,166.583969 388.314545,165.277832 388.967377,163.982346 
z"/>
<path fill="#F93C0E" opacity="1.000000" stroke="none" 
	d="
M388.955750,163.635681 
	C388.314545,165.277832 387.083649,166.583969 387.107361,167.866974 
	C387.219604,173.950195 387.674133,180.027100 388.002777,186.544403 
	C383.416473,184.864990 380.836029,179.979172 381.778381,175.237259 
	C382.513000,171.540756 382.995605,167.771713 384.059387,164.173599 
	C384.516541,162.627396 386.161316,161.432281 387.620605,160.027512 
	C388.297821,161.081253 388.620972,162.185150 388.955750,163.635681 
z"/>
<path fill="#FF7041" opacity="1.000000" stroke="none" 
	d="
M403.033325,168.989792 
	C400.887604,171.584473 398.461365,171.768890 396.601105,168.996582 
	C394.179901,165.388336 392.223816,161.468002 390.016479,157.308655 
	C390.249695,155.549454 390.533997,154.163574 391.117004,151.321732 
	C391.954681,153.948364 392.348907,155.184570 392.846924,156.758270 
	C393.942474,162.461700 397.190643,165.925842 402.537109,168.247681 
	C402.955139,168.521561 403.033325,168.989792 403.033325,168.989792 
z"/>
<path fill="#FCFBD4" opacity="1.000000" stroke="none" 
	d="
M435.993652,201.994400 
	C449.102051,199.929337 456.119507,208.304077 451.824554,221.045517 
	C450.715820,224.334793 449.137115,227.472580 447.674988,230.634033 
	C445.851746,234.576324 442.899780,235.958740 438.224304,233.841919 
	C436.790161,231.943436 435.871613,230.497894 434.933716,228.689728 
	C429.419037,221.087585 429.579254,213.608215 433.998444,205.626648 
	C434.685669,204.200607 435.339661,203.097504 435.993652,201.994400 
z"/>
<path fill="#FDF89C" opacity="1.000000" stroke="none" 
	d="
M434.953064,229.052368 
	C435.871613,230.497894 436.790161,231.943436 437.883240,233.683319 
	C436.815063,234.347519 435.572388,234.717361 434.011597,235.112350 
	C430.130371,230.055664 426.567291,224.973846 422.976868,219.087036 
	C421.382507,204.145096 431.380798,197.530289 441.006317,190.753128 
	C441.661591,190.291748 443.204102,190.718033 444.167816,191.124939 
	C453.541595,195.082764 459.732483,205.166122 458.975159,215.219254 
	C458.802338,217.513031 458.367676,219.787064 458.053528,222.070190 
	C456.896790,223.621033 455.740051,225.171890 454.287048,226.853455 
	C454.662964,222.760986 455.330505,218.537048 456.008453,214.314804 
	C457.110931,207.448380 453.318298,203.048096 448.400360,199.222366 
	C447.879883,198.817459 447.246063,198.557388 446.729523,198.148407 
	C440.485626,193.205093 438.483734,193.807327 436.136536,201.654022 
	C435.339661,203.097504 434.685669,204.200607 433.614075,205.637939 
	C431.399292,207.115784 428.947296,207.846359 427.919678,209.475418 
	C423.773956,216.047607 427.270538,225.315338 434.953064,229.052368 
z"/>
<path fill="#FFBB48" opacity="1.000000" stroke="none" 
	d="
M410.957092,183.993759 
	C412.116089,183.098679 413.275085,182.203583 415.109985,181.159119 
	C417.491150,180.201538 419.963867,179.843719 420.753448,178.498184 
	C422.871826,174.888321 424.269897,170.855743 425.966248,166.618942 
	C426.321014,164.831009 426.663574,163.415207 427.349213,161.943604 
	C430.576416,157.264404 433.974274,153.238922 439.122253,150.904617 
	C449.498962,146.199402 457.528748,150.890640 456.794281,162.315231 
	C456.153900,172.275604 461.148804,178.356995 468.172424,184.212784 
	C469.558350,185.647430 470.765778,186.814240 471.993561,188.401672 
	C472.002899,193.222534 471.991882,197.622742 471.980865,202.022964 
	C471.160095,201.425995 470.339355,200.829041 469.251953,199.688049 
	C468.722900,197.520309 468.573395,195.868652 468.179352,194.277542 
	C465.940979,185.239059 458.442474,179.926926 452.688904,173.587143 
	C448.574066,169.053131 445.376221,165.293427 447.897614,158.991943 
	C448.179596,158.287186 447.618530,157.245102 447.298981,155.581528 
	C437.752167,163.482361 432.071655,172.884460 428.981110,184.232574 
	C428.976990,184.478439 428.971222,184.970169 428.605957,184.980164 
	C425.797760,186.675537 423.354858,188.360916 420.334473,190.444733 
	C419.507507,190.362778 417.760529,190.189621 415.662750,189.987320 
	C413.843201,189.321396 412.374481,188.684616 410.926636,187.641022 
	C410.950684,186.154053 410.953888,185.073898 410.957092,183.993759 
z"/>
<path fill="#FFD651" opacity="1.000000" stroke="none" 
	d="
M428.985229,183.986725 
	C432.071655,172.884460 437.752167,163.482361 447.298981,155.581528 
	C447.618530,157.245102 448.179596,158.287186 447.897614,158.991943 
	C445.376221,165.293427 448.574066,169.053131 452.688904,173.587143 
	C458.442474,179.926926 465.940979,185.239059 468.179352,194.277542 
	C468.573395,195.868652 468.722900,197.520309 468.976501,199.555328 
	C468.376831,200.805161 467.785980,201.643677 466.708130,202.710419 
	C464.813324,200.854538 463.472076,198.721207 461.978149,196.700790 
	C460.613464,194.855194 459.238739,192.969925 457.591583,191.390884 
	C454.804047,188.718567 450.982269,186.767578 449.076294,183.617340 
	C446.245544,178.938705 442.627380,178.143600 438.203735,179.539261 
	C434.983704,180.555161 432.047791,182.471710 428.985229,183.986725 
z"/>
<path fill="#FFE761" opacity="1.000000" stroke="none" 
	d="
M428.981110,184.232574 
	C432.047791,182.471710 434.983704,180.555161 438.203735,179.539261 
	C442.627380,178.143600 446.245544,178.938705 449.076294,183.617340 
	C450.982269,186.767578 454.804047,188.718567 457.591583,191.390884 
	C459.238739,192.969925 460.613464,194.855194 461.978149,196.700790 
	C463.472076,198.721207 464.813324,200.854538 466.567352,202.991135 
	C465.546661,207.016464 464.179688,210.989319 462.421814,214.588089 
	C462.704987,201.813461 455.006317,194.387100 446.120026,187.796326 
	C443.025482,185.501160 439.728119,186.074234 436.390717,188.024750 
	C429.720673,191.923035 426.464355,198.580750 422.813110,204.778564 
	C421.057831,207.758026 420.829010,211.636749 419.908936,215.108246 
	C418.644592,211.983871 417.380249,208.859497 416.426361,205.195557 
	C424.383453,200.311813 427.059509,192.878510 428.971222,184.970169 
	C428.971222,184.970169 428.976990,184.478439 428.981110,184.232574 
z"/>
<path fill="#FEF37A" opacity="1.000000" stroke="none" 
	d="
M419.961243,215.440979 
	C420.829010,211.636749 421.057831,207.758026 422.813110,204.778564 
	C426.464355,198.580750 429.720673,191.923035 436.390717,188.024750 
	C439.728119,186.074234 443.025482,185.501160 446.120026,187.796326 
	C455.006317,194.387100 462.704987,201.813461 462.076172,214.672729 
	C460.966339,217.335739 459.811310,219.540039 458.354889,221.907257 
	C458.367676,219.787064 458.802338,217.513031 458.975159,215.219254 
	C459.732483,205.166122 453.541595,195.082764 444.167816,191.124939 
	C443.204102,190.718033 441.661591,190.291748 441.006317,190.753128 
	C431.380798,197.530289 421.382507,204.145096 422.893127,218.754639 
	C421.895660,218.076035 420.954590,216.924866 419.961243,215.440979 
z"/>
<path fill="#FFC011" opacity="1.000000" stroke="none" 
	d="
M471.983521,202.437225 
	C471.991882,197.622742 472.002899,193.222534 472.355591,188.413269 
	C474.175476,188.664871 475.653625,189.325546 477.107056,190.376770 
	C477.387085,192.511124 477.691864,194.254944 477.996643,195.998749 
	C477.004303,202.043579 476.011932,208.088394 475.039856,214.602753 
	C473.483978,216.854446 471.907776,218.636612 470.175354,220.714874 
	C469.843414,221.005249 469.667633,220.999512 469.227936,220.981323 
	C469.971405,214.929749 470.978821,208.890625 471.983521,202.437225 
z"/>
<path fill="#FF6341" opacity="1.000000" stroke="none" 
	d="
M439.839020,84.288727 
	C440.445312,84.069298 440.896149,84.073112 441.682922,84.038605 
	C442.464172,84.907265 442.909546,85.814255 443.633728,86.873352 
	C444.846771,88.481087 445.780945,89.936722 446.890320,92.034103 
	C448.654205,94.559395 450.254181,96.433601 451.829010,98.328697 
	C454.226440,101.213654 456.606476,104.113091 458.553436,107.005104 
	C454.725861,107.349205 451.338715,107.694588 447.662903,107.906448 
	C446.249481,107.182404 445.124756,106.591881 443.799927,105.739899 
	C442.748627,105.321609 441.897369,105.164787 441.018494,104.556976 
	C440.331146,99.726212 439.671448,95.346443 439.011780,90.966660 
	C438.715332,89.245323 438.418915,87.523979 438.152100,85.427010 
	C438.682343,84.871582 439.182953,84.691780 439.839020,84.288727 
z"/>
<path fill="#FF582E" opacity="1.000000" stroke="none" 
	d="
M458.993896,107.006378 
	C456.606476,104.113091 454.226440,101.213654 451.829010,98.328697 
	C450.254181,96.433601 448.654205,94.559395 447.039001,92.328659 
	C453.314606,97.758751 459.616730,103.536018 465.966553,110.052643 
	C466.336456,112.871231 466.658691,114.950462 466.661011,116.980606 
	C465.230835,115.954025 464.120575,114.976540 462.971008,113.649857 
	C461.619080,111.202576 460.306488,109.104477 458.993896,107.006378 
z"/>
<path fill="#FF4C13" opacity="1.000000" stroke="none" 
	d="
M466.980957,117.029701 
	C466.658691,114.950462 466.336456,112.871231 466.007721,110.395523 
	C470.042328,114.009308 471.921722,118.709259 470.328308,124.706009 
	C469.880646,124.985558 469.709625,124.988007 469.232574,124.619659 
	C468.278015,121.842468 467.629456,119.436089 466.980957,117.029701 
z"/>
<path fill="#FFC011" opacity="1.000000" stroke="none" 
	d="
M410.905762,188.047836 
	C412.374481,188.684616 413.843201,189.321396 415.652191,190.446106 
	C415.662048,195.620071 415.331635,200.306061 415.001221,204.992065 
	C414.669098,208.395401 414.271942,211.794098 414.029877,215.203827 
	C413.890625,217.165283 414.002472,219.144577 413.981689,221.574249 
	C412.068054,220.219330 410.174011,218.405960 408.141846,215.848145 
	C408.642792,207.048752 409.281830,198.993851 409.936554,190.613434 
	C410.270081,189.541229 410.587921,188.794525 410.905762,188.047836 
z"/>
<path fill="#FFD651" opacity="1.000000" stroke="none" 
	d="
M415.295013,204.982574 
	C415.331635,200.306061 415.662048,195.620071 416.003021,190.475281 
	C417.760529,190.189621 419.507507,190.362778 420.334473,190.444733 
	C423.354858,188.360916 425.797760,186.675537 428.605957,184.980164 
	C427.059509,192.878510 424.383453,200.311813 416.456421,204.800507 
	C415.980286,204.954361 415.784546,204.963730 415.295013,204.982574 
z"/>
<path fill="#FDAF0E" opacity="1.000000" stroke="none" 
	d="
M409.920868,190.938934 
	C409.281830,198.993851 408.642792,207.048752 407.998779,215.552444 
	C406.882935,215.085342 405.772034,214.169464 404.383972,213.122345 
	C403.725281,211.934387 403.343719,210.877686 402.961884,209.017242 
	C403.307251,204.266953 403.857544,200.324768 403.942230,196.372635 
	C404.030823,192.237305 406.084412,190.721191 409.920868,190.938934 
z"/>
<path fill="#FF7041" opacity="1.000000" stroke="none" 
	d="
M441.046143,105.007965 
	C441.897369,105.164787 442.748627,105.321609 443.796051,106.190125 
	C444.501862,114.111412 442.325256,120.170975 437.832733,126.045830 
	C432.600983,132.887344 428.550323,140.632050 423.731720,148.096924 
	C422.998383,148.495041 422.520416,148.781021 422.042480,149.067017 
	C421.533722,148.159485 421.024963,147.251953 420.247925,145.773148 
	C420.002594,144.137100 420.025604,143.072311 420.410004,141.932678 
	C422.097595,137.715393 423.552490,133.607788 424.687561,129.413605 
	C425.150513,127.702789 424.919952,125.804298 425.049011,123.605286 
	C425.458008,121.178490 425.822876,119.137596 426.187775,117.096703 
	C427.868713,117.346901 429.549683,117.597092 431.972443,117.879486 
	C434.457764,116.515465 436.749268,115.443886 437.814514,113.645828 
	C439.356995,111.042191 440.012360,107.912979 441.046143,105.007965 
z"/>
<path fill="#F93C0E" opacity="1.000000" stroke="none" 
	d="
M420.048584,142.007523 
	C420.025604,143.072311 420.002594,144.137100 419.988892,145.601288 
	C419.661987,149.713638 419.100800,153.422516 419.033630,157.140305 
	C418.860992,166.700851 413.165802,171.220184 403.426239,168.990692 
	C403.033325,168.989792 402.955139,168.521561 402.879700,168.296234 
	C411.967133,166.075668 413.342926,159.157532 412.846466,151.493729 
	C412.257416,142.400696 415.937286,134.809952 420.598083,127.134468 
	C421.436859,126.682198 422.018555,126.455902 422.820007,126.538086 
	C422.042755,131.900208 421.045654,136.953857 420.048584,142.007523 
z"/>
<path fill="#F93C0E" opacity="1.000000" stroke="none" 
	d="
M441.018494,104.556976 
	C440.012360,107.912979 439.356995,111.042191 437.814514,113.645828 
	C436.749268,115.443886 434.457764,116.515465 432.337646,117.834229 
	C438.326935,110.230812 439.387329,101.261703 439.003448,91.432068 
	C439.671448,95.346443 440.331146,99.726212 441.018494,104.556976 
z"/>
<path fill="#FF7032" opacity="1.000000" stroke="none" 
	d="
M420.409973,141.932678 
	C421.045654,136.953857 422.042755,131.900208 423.045502,126.425926 
	C423.305145,125.516655 423.559143,125.028015 424.159393,124.271935 
	C424.505676,124.004494 425.004883,123.991188 425.004883,123.991188 
	C424.919952,125.804298 425.150513,127.702789 424.687561,129.413605 
	C423.552490,133.607788 422.097595,137.715393 420.409973,141.932678 
z"/>
<path fill="#F93C0E" opacity="1.000000" stroke="none" 
	d="
M425.049011,123.605286 
	C425.004883,123.991188 424.505676,124.004494 424.256165,124.013290 
	C424.486237,121.795776 424.965790,119.569473 425.816559,117.219940 
	C425.822876,119.137596 425.458008,121.178490 425.049011,123.605286 
z"/>
<path fill="#F93C0E" opacity="1.000000" stroke="none" 
	d="
M437.818604,82.140060 
	C437.918884,82.352921 437.721222,82.598946 437.253082,82.913712 
	C437.114044,82.689812 437.293365,82.420074 437.818604,82.140060 
z"/>
<path fill="#FD8406" opacity="1.000000" stroke="none" 
	d="
M409.936554,190.613434 
	C406.084412,190.721191 404.030823,192.237305 403.942230,196.372635 
	C403.857544,200.324768 403.307251,204.266953 402.901367,208.683746 
	C401.772949,208.195282 400.704742,207.236572 399.357056,206.121582 
	C397.489227,200.530823 395.900879,195.096329 394.157410,189.321457 
	C394.003906,185.604950 394.005554,182.228836 394.020325,178.385696 
	C394.897766,178.319733 396.071320,178.488022 396.576538,179.159317 
	C400.045532,183.768448 404.801758,184.559265 410.516846,184.003998 
	C410.953888,185.073898 410.950684,186.154053 410.926636,187.641022 
	C410.587921,188.794525 410.270081,189.541229 409.936554,190.613434 
z"/>
<path fill="#FF953C" opacity="1.000000" stroke="none" 
	d="
M463.005920,133.002518 
	C463.335999,139.688278 463.666046,146.374039 463.758606,153.697220 
	C463.345337,154.889984 463.169617,155.445328 462.632812,155.960831 
	C460.915924,154.013260 459.255981,152.248032 458.279022,150.162827 
	C456.975769,147.381210 456.373138,144.278442 455.163727,141.444138 
	C453.237152,136.929245 455.598267,129.013199 460.252502,126.220741 
	C461.349731,128.625732 462.177826,130.814133 463.005920,133.002518 
z"/>
<path fill="#FF6341" opacity="1.000000" stroke="none" 
	d="
M462.993896,156.000687 
	C463.169617,155.445328 463.345337,154.889984 463.764648,154.164963 
	C466.175018,155.381577 468.617096,156.481445 470.435883,158.229782 
	C472.511627,160.225159 473.292969,162.500122 471.223541,165.587402 
	C469.936554,167.507416 470.346893,170.565125 469.647827,173.522125 
	C467.547424,172.923721 465.794586,171.915421 463.870697,170.536865 
	C463.464386,165.444641 463.229126,160.722672 462.993896,156.000687 
z"/>
<path fill="#FF7032" opacity="1.000000" stroke="none" 
	d="
M478.242981,195.988373 
	C477.691864,194.254944 477.387085,192.511124 477.352600,190.135651 
	C477.153595,187.885544 476.868866,186.183105 476.178162,184.665405 
	C474.543457,181.073425 472.715942,177.569199 470.966339,174.029495 
	C474.423157,173.265121 477.880005,172.500732 481.639557,171.876099 
	C481.230316,177.078400 480.487244,182.136887 479.819153,187.205231 
	C479.474548,189.819229 479.263245,192.450790 478.986694,195.512543 
	C478.981659,195.950653 478.489288,195.977997 478.242981,195.988373 
z"/>
<path fill="#FF953C" opacity="1.000000" stroke="none" 
	d="
M470.720947,174.020889 
	C472.715942,177.569199 474.543457,181.073425 476.178162,184.665405 
	C476.868866,186.183105 477.153595,187.885544 477.377319,189.745102 
	C475.653625,189.325546 474.175476,188.664871 472.335266,187.992630 
	C470.765778,186.814240 469.558350,185.647430 468.170441,183.839844 
	C466.673889,179.101761 465.357819,175.004440 464.041748,170.907120 
	C465.794586,171.915421 467.547424,172.923721 469.642822,173.957611 
	C469.985352,173.983215 470.475555,174.012283 470.720947,174.020889 
z"/>
<path fill="#FF7032" opacity="1.000000" stroke="none" 
	d="
M463.362274,132.961395 
	C462.177826,130.814133 461.349731,128.625732 460.248962,125.893356 
	C459.959412,124.913261 459.942505,124.477165 460.233582,123.812172 
	C461.364471,120.388542 462.187408,117.193810 463.010315,113.999069 
	C464.120575,114.976540 465.230835,115.954025 466.661011,116.980606 
	C467.629456,119.436089 468.278015,121.842468 468.976044,124.622910 
	C467.256561,127.638077 465.487579,130.279175 463.362274,132.961395 
z"/>
<path fill="#FF953C" opacity="1.000000" stroke="none" 
	d="
M422.035980,149.493973 
	C422.520416,148.781021 422.998383,148.495041 423.881866,148.430679 
	C425.193634,153.101334 426.099854,157.550354 427.006104,161.999390 
	C426.663574,163.415207 426.321014,164.831009 425.636108,166.671722 
	C423.518463,168.393417 421.743195,169.690231 419.967957,170.987045 
	C420.655151,163.965012 421.342316,156.942963 422.035980,149.493973 
z"/>
<path fill="#FF9D46" opacity="1.000000" stroke="none" 
	d="
M419.829315,171.314819 
	C421.743195,169.690231 423.518463,168.393417 425.623871,167.043823 
	C424.269897,170.855743 422.871826,174.888321 420.753448,178.498184 
	C419.963867,179.843719 417.491150,180.201538 415.405029,181.009384 
	C416.579681,177.886871 418.135193,174.764725 419.829315,171.314819 
z"/>
<path fill="#FCFABF" opacity="1.000000" stroke="none" 
	d="
M434.933716,228.689728 
	C427.270538,225.315338 423.773956,216.047607 427.919678,209.475418 
	C428.947296,207.846359 431.399292,207.115784 433.580872,205.960907 
	C429.579254,213.608215 429.419037,221.087585 434.933716,228.689728 
z"/>
<path fill="#FF9D46" opacity="1.000000" stroke="none" 
	d="
M427.349213,161.943604 
	C426.099854,157.550354 425.193634,153.101334 424.137268,148.318542 
	C428.550323,140.632050 432.600983,132.887344 437.832733,126.045830 
	C442.325256,120.170975 444.501862,114.111412 443.996124,106.451591 
	C445.124756,106.591881 446.249481,107.182404 447.817596,108.202377 
	C452.149170,113.768242 456.037384,118.904655 459.925629,124.041061 
	C459.942505,124.477165 459.959412,124.913261 459.979858,125.676750 
	C455.598267,129.013199 453.237152,136.929245 455.163727,141.444138 
	C456.373138,144.278442 456.975769,147.381210 458.279022,150.162827 
	C459.255981,152.248032 460.915924,154.013260 462.632812,155.960831 
	C463.229126,160.722672 463.464386,165.444641 463.870697,170.536865 
	C465.357819,175.004440 466.673889,179.101761 467.991943,183.572021 
	C461.148804,178.356995 456.153900,172.275604 456.794281,162.315231 
	C457.528748,150.890640 449.498962,146.199402 439.122253,150.904617 
	C433.974274,153.238922 430.576416,157.264404 427.349213,161.943604 
z"/>
<path fill="#FF7041" opacity="1.000000" stroke="none" 
	d="
M460.233582,123.812180 
	C456.037384,118.904655 452.149170,113.768242 448.106262,108.335892 
	C451.338715,107.694588 454.725861,107.349205 458.553436,107.005104 
	C460.306488,109.104477 461.619080,111.202576 462.971008,113.649872 
	C462.187408,117.193810 461.364471,120.388542 460.233582,123.812180 
z"/>
</svg>