<svg xmlns="http://www.w3.org/2000/svg" xmlns:xlink="http://www.w3.org/1999/xlink" width="40" zoomAndPan="magnify" viewBox="0 0 30 30.000001" height="40" preserveAspectRatio="xMidYMid meet" version="1.0"><defs><clipPath id="a897efed5d"><path d="M 0.484375 0 L 29.515625 0 L 29.515625 29.03125 L 0.484375 29.03125 Z M 0.484375 0 " clip-rule="nonzero"/></clipPath><clipPath id="8835a7c5f2"><path d="M 1.5 1.015625 L 28.355469 1.015625 L 28.355469 27.871094 L 1.5 27.871094 Z M 1.5 1.015625 " clip-rule="nonzero"/></clipPath></defs><g clip-path="url(#a897efed5d)"><path fill="#ffffff" d="M 0.484375 0 L 29.515625 0 L 29.515625 101.613281 L 0.484375 101.613281 Z M 0.484375 0 " fill-opacity="1" fill-rule="nonzero"/><path fill="#ffffff" d="M 0.484375 0 L 29.515625 0 L 29.515625 29.03125 L 0.484375 29.03125 Z M 0.484375 0 " fill-opacity="1" fill-rule="nonzero"/><path fill="#ffffff" d="M 0.484375 0 L 29.515625 0 L 29.515625 29.03125 L 0.484375 29.03125 Z M 0.484375 0 " fill-opacity="1" fill-rule="nonzero"/></g><g clip-path="url(#8835a7c5f2)"><path fill="#202020" d="M 25.914062 1.015625 L 3.941406 1.015625 C 2.59375 1.015625 1.5 2.109375 1.5 3.457031 L 1.5 25.429688 C 1.5 26.777344 2.59375 27.871094 3.941406 27.871094 L 25.914062 27.871094 C 27.261719 27.871094 28.355469 26.777344 28.355469 25.429688 L 28.355469 3.457031 C 28.355469 2.109375 27.261719 1.015625 25.914062 1.015625 Z M 24.3125 12.582031 C 24.15625 12.59375 23.996094 12.605469 23.832031 12.605469 C 22.007812 12.605469 20.40625 11.667969 19.472656 10.25 C 19.472656 13.96875 19.472656 18.207031 19.472656 18.277344 C 19.472656 21.554688 16.8125 24.210938 13.535156 24.210938 C 10.261719 24.207031 7.601562 21.550781 7.601562 18.273438 C 7.601562 14.996094 10.261719 12.339844 13.535156 12.339844 C 13.660156 12.339844 13.78125 12.351562 13.902344 12.359375 L 13.902344 15.285156 C 13.78125 15.269531 13.664062 15.246094 13.535156 15.246094 C 11.863281 15.246094 10.507812 16.605469 10.507812 18.277344 C 10.507812 19.949219 11.863281 21.304688 13.535156 21.304688 C 15.210938 21.304688 16.6875 19.988281 16.6875 18.3125 C 16.6875 18.246094 16.71875 4.679688 16.71875 4.679688 L 19.511719 4.679688 C 19.773438 7.179688 21.792969 9.152344 24.3125 9.332031 Z M 24.3125 12.582031 " fill-opacity="1" fill-rule="nonzero"/></g></svg>