<?xml version="1.0" standalone="no"?>
<!DOCTYPE svg PUBLIC "-//W3C//DTD SVG 20010904//EN"
 "http://www.w3.org/TR/2001/REC-SVG-20010904/DTD/svg10.dtd">
<svg version="1.0" xmlns="http://www.w3.org/2000/svg"
 width="40.000000pt" height="40.000000pt" viewBox="0 0 40.000000 40.000000"
 preserveAspectRatio="xMidYMid meet">

<g transform="translate(0.000000,40.000000) scale(0.100000,-0.100000)"
fill="#000000" stroke="none">
<path d="M22 203 l3 -178 175 0 175 0 0 175 0 175 -178 3 -177 2 2 -177z m246
112 c7 -14 23 -30 37 -37 14 -6 25 -19 25 -30 0 -20 -21 -23 -51 -8 -18 10
-19 7 -19 -53 0 -82 -23 -117 -78 -117 -75 0 -110 83 -57 135 13 14 33 25 45
25 28 0 26 -33 -2 -45 -48 -21 -24 -84 27 -71 25 6 25 8 25 110 0 56 3 106 7
109 13 14 30 6 41 -18z"/>
</g>
</svg>
